M48
;Layer_Color=9474304
;FILE_FORMAT=4:4
METRIC,LZ
;TYPE=PLATED
T1F00S00C0.2000
T2F00S00C0.2500
T3F00S00C0.3000
;TYPE=NON_PLATED
T5F00S00C1.1520
%
T01
X0003048Y0028956
X0007874Y0029972
X0008636Y0026162
X0017018Y002921
X0021082Y0018288
X0022098
X002413Y0010414
X00248412Y00098044
X00254Y0009652
X0026497
X00270764Y00097282
X0027686Y0010414
X00273304Y00064516
X0026231Y0006858
X0025654
X00250698Y0006731
X0029972Y0006858
X0005588Y0011176
X0043434Y0032512
Y0033782
Y0035052
X0036322Y0033274
Y0032004
X0019812Y003302
X0017018Y0030226
T02
X0003048Y00282702
X0014478Y0028194
Y002667
X00144946Y00251474
X00138684Y00201422
X0013208Y0019812
X00115824Y00211328
X0010922Y0020828
X0008636
X00090678Y00214376
X0020066Y0023876
X00205486Y00244348
X002286Y0021082
X00235204Y0020701
X0023876Y0021336
X0024892Y002159
X00251206Y00208788
X0037338Y0019304
X0042164Y002032
X003556Y0012446
Y0010668
Y000889
Y0007366
X00381
X0016764Y001016
X000635Y0009398
X00163576Y00289814
X0049276Y0026162
Y0024892
Y0023622
X0044704Y002032
Y001778
X0061722Y0015494
X0049276Y003175
Y003429
X0020574Y003302
T03
X0002032Y002159
X0004826
X0005334Y0019812
X00091295Y0022614
X0007366Y0024384
X0006858Y0026924
X0005588Y0028956
X001143Y00284932
X0013208Y0021844
X001651Y0022606
X0017526Y0020066
X0018288Y0017272
Y001651
X0019558Y0013208
X0020828
X0023114Y0012954
X0022352Y0011938
X0022606Y0009652
X0023876
X00279075Y00096821
X002921Y0009652
X0027686Y001143
X0030226Y0012954
X0024892Y0018288
X0023622
X002286Y0017272
Y001651
X0012954Y0013208
Y0012192
X000762Y00127
X000635Y0005334
X001397
X0039624Y0008128
X004318Y0006858
X0034036Y0022352
X0047244Y0022606
Y0027686
X0049276Y002921
X005207Y0028702
X0055626Y0025146
X0056642Y0020828
X0062738
X0064008Y0013716
X0059436
X0061722Y0009652
X0044196Y001143
X0043434Y0015748
X0044069Y0032893
X0047244Y003048
Y00355148
X0056642Y0035306
X0064516Y0034798
X0037084Y0036576
X00370586Y0032004
X00355854Y0033274
X0033782
X0016764Y00335732
X0015494
Y0036068
X0016764
X0013716Y0030988
X000889
X0007874Y0033782
T05
X006858Y0002032
X0002032Y0036068
M30
