G04*
G04 #@! TF.GenerationSoftware,Altium Limited,Altium Designer,22.9.1 (49)*
G04*
G04 Layer_Color=8421504*
%FSLAX44Y44*%
%MOMM*%
G71*
G04*
G04 #@! TF.SameCoordinates,E336FFB1-1865-4BEF-82AD-0346AAED6B04*
G04*
G04*
G04 #@! TF.FilePolarity,Positive*
G04*
G01*
G75*
%ADD15C,0.2500*%
%ADD16R,2.2000X1.2000*%
%ADD17R,1.5000X1.6000*%
%ADD18R,1.5000X1.2000*%
%ADD19R,1.6000X0.7000*%
%ADD20R,1.0000X0.7000*%
%ADD21R,0.3000X0.7000*%
%ADD22R,1.0000X1.4000*%
%ADD23R,0.8000X2.0000*%
%ADD24R,2.0000X0.8000*%
%ADD25R,0.7000X0.9000*%
%ADD26R,1.1000X0.6000*%
%ADD27R,0.6000X1.1000*%
%ADD28R,1.2000X1.2000*%
%ADD29R,0.8000X0.4000*%
%ADD30R,0.8000X0.4000*%
%ADD31R,0.4000X0.8000*%
%ADD32R,0.8000X0.8000*%
G04:AMPARAMS|DCode=33|XSize=1.55mm|YSize=0.6mm|CornerRadius=0.075mm|HoleSize=0mm|Usage=FLASHONLY|Rotation=270.000|XOffset=0mm|YOffset=0mm|HoleType=Round|Shape=RoundedRectangle|*
%AMROUNDEDRECTD33*
21,1,1.5500,0.4500,0,0,270.0*
21,1,1.4000,0.6000,0,0,270.0*
1,1,0.1500,-0.2250,-0.7000*
1,1,0.1500,-0.2250,0.7000*
1,1,0.1500,0.2250,0.7000*
1,1,0.1500,0.2250,-0.7000*
%
%ADD33ROUNDEDRECTD33*%
%ADD34R,0.6000X0.4000*%
G04:AMPARAMS|DCode=35|XSize=0.35mm|YSize=0.85mm|CornerRadius=0.0438mm|HoleSize=0mm|Usage=FLASHONLY|Rotation=90.000|XOffset=0mm|YOffset=0mm|HoleType=Round|Shape=RoundedRectangle|*
%AMROUNDEDRECTD35*
21,1,0.3500,0.7625,0,0,90.0*
21,1,0.2625,0.8500,0,0,90.0*
1,1,0.0875,0.3813,0.1313*
1,1,0.0875,0.3813,-0.1313*
1,1,0.0875,-0.3813,-0.1313*
1,1,0.0875,-0.3813,0.1313*
%
%ADD35ROUNDEDRECTD35*%
G04:AMPARAMS|DCode=36|XSize=0.35mm|YSize=0.85mm|CornerRadius=0.0438mm|HoleSize=0mm|Usage=FLASHONLY|Rotation=0.000|XOffset=0mm|YOffset=0mm|HoleType=Round|Shape=RoundedRectangle|*
%AMROUNDEDRECTD36*
21,1,0.3500,0.7625,0,0,0.0*
21,1,0.2625,0.8500,0,0,0.0*
1,1,0.0875,0.1313,-0.3813*
1,1,0.0875,-0.1313,-0.3813*
1,1,0.0875,-0.1313,0.3813*
1,1,0.0875,0.1313,0.3813*
%
%ADD36ROUNDEDRECTD36*%
%ADD37R,0.6900X0.9900*%
%ADD38R,0.8000X0.9000*%
%ADD39R,0.2500X0.5500*%
%ADD40R,0.6000X0.5000*%
%ADD41R,0.5000X0.6000*%
%ADD42R,0.5000X0.5000*%
%ADD43R,0.5000X0.5000*%
G36*
X119090Y324229D02*
X118079Y323218D01*
X118075Y323240D01*
X107057D01*
X106090Y324223D01*
Y326740D01*
X119090D01*
Y324229D01*
D02*
G37*
G36*
Y309740D02*
X114590D01*
Y319240D01*
X119090D01*
Y309740D01*
D02*
G37*
G36*
X110590D02*
X106090D01*
Y319240D01*
X110590D01*
Y309740D01*
D02*
G37*
G36*
X244780Y306400D02*
X232780D01*
Y312410D01*
X238770Y318400D01*
X244780D01*
Y306400D01*
D02*
G37*
G36*
X126590Y296240D02*
X124106D01*
X123102Y297244D01*
X123090D01*
Y318206D01*
X124107Y319214D01*
Y319240D01*
X126590D01*
Y296240D01*
D02*
G37*
G36*
X119090D02*
X114590D01*
Y305740D01*
X119090D01*
Y296240D01*
D02*
G37*
G36*
X110590D02*
X107510D01*
X106090Y297730D01*
Y305740D01*
X110590D01*
Y296240D01*
D02*
G37*
G36*
X101073Y319214D02*
X102090Y318206D01*
Y297244D01*
X102078D01*
X101074Y296240D01*
X98590D01*
Y319240D01*
X101073D01*
Y319214D01*
D02*
G37*
G36*
X119090Y291251D02*
Y288740D01*
X106090D01*
Y291257D01*
X107057Y292240D01*
X118075D01*
X118079Y292262D01*
X119090Y291251D01*
D02*
G37*
G36*
X51054Y238506D02*
X51180D01*
Y231220D01*
X35180D01*
Y241220D01*
X48260D01*
X51054Y238506D01*
D02*
G37*
D15*
X407280Y139060D02*
D03*
Y144060D02*
D03*
X412280Y139060D02*
D03*
Y144060D02*
D03*
X407280Y79060D02*
D03*
Y84060D02*
D03*
Y89060D02*
D03*
Y94060D02*
D03*
Y99060D02*
D03*
X412280Y79060D02*
D03*
Y84060D02*
D03*
Y89060D02*
D03*
Y94060D02*
D03*
Y99060D02*
D03*
Y104060D02*
D03*
X417280Y79060D02*
D03*
Y84060D02*
D03*
Y89060D02*
D03*
Y94060D02*
D03*
Y99060D02*
D03*
X422280Y79060D02*
D03*
Y84060D02*
D03*
Y89060D02*
D03*
X427280Y79060D02*
D03*
Y84060D02*
D03*
Y89060D02*
D03*
Y99060D02*
D03*
X432280Y79060D02*
D03*
Y84060D02*
D03*
Y89060D02*
D03*
Y99060D02*
D03*
X437280Y79060D02*
D03*
Y84060D02*
D03*
Y89060D02*
D03*
Y99060D02*
D03*
X442280D02*
D03*
X407280Y104060D02*
D03*
Y109060D02*
D03*
Y114060D02*
D03*
Y134060D02*
D03*
Y124060D02*
D03*
Y129060D02*
D03*
Y119060D02*
D03*
X412280Y129060D02*
D03*
Y109060D02*
D03*
Y119060D02*
D03*
Y134060D02*
D03*
Y114060D02*
D03*
X417280Y104060D02*
D03*
X427280D02*
D03*
X417280Y109060D02*
D03*
X427280D02*
D03*
X417280Y114060D02*
D03*
X427280D02*
D03*
X417280Y119060D02*
D03*
X427280D02*
D03*
X412280Y124060D02*
D03*
X417280D02*
D03*
X427280D02*
D03*
X432280D02*
D03*
X437280D02*
D03*
X417280Y134060D02*
D03*
Y129060D02*
D03*
X422280Y129060D02*
D03*
X432280Y134060D02*
D03*
X427280D02*
D03*
X442280D02*
D03*
X437280D02*
D03*
X422280D02*
D03*
X417280Y139060D02*
D03*
X422280D02*
D03*
X432280D02*
D03*
X427280D02*
D03*
X437280D02*
D03*
X417280Y144060D02*
D03*
X432280D02*
D03*
X427280D02*
D03*
X442280D02*
D03*
X422280D02*
D03*
X437280D02*
D03*
X442280Y84060D02*
D03*
Y89060D02*
D03*
Y79060D02*
D03*
X447280Y84060D02*
D03*
Y89060D02*
D03*
Y79060D02*
D03*
Y99060D02*
D03*
X452280Y84060D02*
D03*
Y89060D02*
D03*
Y79060D02*
D03*
Y99060D02*
D03*
Y104060D02*
D03*
X457280Y89060D02*
D03*
Y84060D02*
D03*
Y79060D02*
D03*
X462280Y84060D02*
D03*
Y94060D02*
D03*
Y89060D02*
D03*
Y79060D02*
D03*
Y99060D02*
D03*
Y104060D02*
D03*
X467280Y84060D02*
D03*
Y89060D02*
D03*
Y94060D02*
D03*
Y79060D02*
D03*
Y99060D02*
D03*
Y104060D02*
D03*
X472280Y84060D02*
D03*
Y79060D02*
D03*
Y89060D02*
D03*
Y94060D02*
D03*
Y99060D02*
D03*
X442280Y124060D02*
D03*
Y139060D02*
D03*
X447280Y124060D02*
D03*
Y134060D02*
D03*
Y139060D02*
D03*
Y144060D02*
D03*
X452280Y109060D02*
D03*
Y114060D02*
D03*
Y119060D02*
D03*
Y124060D02*
D03*
Y139060D02*
D03*
Y134060D02*
D03*
Y144060D02*
D03*
X457280Y139060D02*
D03*
Y134060D02*
D03*
Y144060D02*
D03*
X472280Y104060D02*
D03*
X462280Y109060D02*
D03*
X467280D02*
D03*
X472280D02*
D03*
X462280Y114060D02*
D03*
X467280D02*
D03*
X472280D02*
D03*
X462280Y119060D02*
D03*
X467280D02*
D03*
X472280D02*
D03*
X462280Y124060D02*
D03*
X467280D02*
D03*
X472280D02*
D03*
X462280Y129060D02*
D03*
X467280D02*
D03*
X472280D02*
D03*
X462280Y134060D02*
D03*
X467280D02*
D03*
X472280D02*
D03*
X462280Y139060D02*
D03*
X467280D02*
D03*
X472280D02*
D03*
X462280Y144060D02*
D03*
X467280D02*
D03*
X472280D02*
D03*
D16*
X646240Y361320D02*
D03*
Y206320D02*
D03*
D17*
X550240Y352320D02*
D03*
D18*
Y206320D02*
D03*
D19*
X540240Y229320D02*
D03*
Y240320D02*
D03*
Y251320D02*
D03*
Y262320D02*
D03*
Y273320D02*
D03*
Y284320D02*
D03*
Y295320D02*
D03*
Y306320D02*
D03*
Y218320D02*
D03*
D20*
X290480Y74840D02*
D03*
X228480D02*
D03*
D21*
X236980D02*
D03*
X241980D02*
D03*
X246980D02*
D03*
X251980D02*
D03*
X256980D02*
D03*
X261980D02*
D03*
X266980D02*
D03*
X271980D02*
D03*
X276980D02*
D03*
X281980D02*
D03*
X289480Y87840D02*
D03*
X284480D02*
D03*
X279480D02*
D03*
X274480D02*
D03*
X269480D02*
D03*
X264480D02*
D03*
X254480D02*
D03*
X249480D02*
D03*
X244480D02*
D03*
X239480D02*
D03*
X234480D02*
D03*
X229480D02*
D03*
D22*
X212700Y167640D02*
D03*
X193700D02*
D03*
D23*
X90760Y353060D02*
D03*
X132760D02*
D03*
D24*
X617220Y85680D02*
D03*
Y127680D02*
D03*
D25*
X43180Y325460D02*
D03*
X52680Y304460D02*
D03*
X33680D02*
D03*
D26*
X246580Y149200D02*
D03*
Y139700D02*
D03*
Y130200D02*
D03*
X271580Y149200D02*
D03*
Y139700D02*
D03*
Y130200D02*
D03*
X114100Y99720D02*
D03*
Y109220D02*
D03*
Y118720D02*
D03*
X89100Y99720D02*
D03*
Y109220D02*
D03*
Y118720D02*
D03*
D27*
X462940Y317700D02*
D03*
X472440D02*
D03*
X481940D02*
D03*
X462940Y342700D02*
D03*
X472440D02*
D03*
X481940D02*
D03*
X462940Y238960D02*
D03*
X472440D02*
D03*
X481940D02*
D03*
X462940Y263960D02*
D03*
X472440D02*
D03*
X481940D02*
D03*
D28*
X255280Y312400D02*
D03*
X238780Y295900D02*
D03*
Y279400D02*
D03*
X255280D02*
D03*
X271780D02*
D03*
Y295900D02*
D03*
Y312400D02*
D03*
X255280Y295900D02*
D03*
D29*
X325280Y304400D02*
D03*
Y261900D02*
D03*
Y287400D02*
D03*
Y236400D02*
D03*
Y244900D02*
D03*
Y253400D02*
D03*
Y270400D02*
D03*
Y278900D02*
D03*
Y295900D02*
D03*
Y312900D02*
D03*
Y321400D02*
D03*
Y329900D02*
D03*
Y338400D02*
D03*
Y346900D02*
D03*
Y355400D02*
D03*
D30*
X185280D02*
D03*
Y346900D02*
D03*
Y338400D02*
D03*
Y329900D02*
D03*
Y321400D02*
D03*
Y312900D02*
D03*
Y304400D02*
D03*
Y295900D02*
D03*
Y287400D02*
D03*
Y278900D02*
D03*
Y270400D02*
D03*
Y261900D02*
D03*
Y253400D02*
D03*
Y244900D02*
D03*
Y236400D02*
D03*
D31*
X195780Y225900D02*
D03*
X314780Y365900D02*
D03*
X306280D02*
D03*
X297780D02*
D03*
X289280D02*
D03*
X280780D02*
D03*
X272280D02*
D03*
X263780D02*
D03*
X255280D02*
D03*
X246780D02*
D03*
X238280D02*
D03*
X229780D02*
D03*
X221280D02*
D03*
X204280D02*
D03*
X195780D02*
D03*
X212780D02*
D03*
X204280Y225900D02*
D03*
X306280D02*
D03*
X314780D02*
D03*
X289280D02*
D03*
X297780D02*
D03*
X272280D02*
D03*
X255280D02*
D03*
X263780D02*
D03*
X238280D02*
D03*
X246780D02*
D03*
X221280D02*
D03*
X229780D02*
D03*
X212780D02*
D03*
X280780D02*
D03*
D32*
X185280Y365900D02*
D03*
Y225900D02*
D03*
X325280D02*
D03*
Y365900D02*
D03*
D33*
X82550Y140640D02*
D03*
X95250D02*
D03*
X107950D02*
D03*
X120650D02*
D03*
X82550Y194640D02*
D03*
X95250D02*
D03*
X107950D02*
D03*
X120650D02*
D03*
D34*
X198120Y191580D02*
D03*
Y199580D02*
D03*
X236220Y198818D02*
D03*
Y190818D02*
D03*
D35*
X134030Y258880D02*
D03*
Y253880D02*
D03*
Y248880D02*
D03*
Y243880D02*
D03*
Y238880D02*
D03*
Y233880D02*
D03*
X94550D02*
D03*
Y238880D02*
D03*
Y243880D02*
D03*
Y248880D02*
D03*
Y253880D02*
D03*
Y258880D02*
D03*
D36*
X126800Y226630D02*
D03*
X121800D02*
D03*
X116800D02*
D03*
X111800D02*
D03*
X106800D02*
D03*
X101800D02*
D03*
Y266130D02*
D03*
X106800D02*
D03*
X111800D02*
D03*
X116800D02*
D03*
X121800D02*
D03*
X126800D02*
D03*
D37*
X212040Y144780D02*
D03*
X193040D02*
D03*
X212040Y118880D02*
D03*
X202540D02*
D03*
X193040D02*
D03*
D38*
X52680Y269400D02*
D03*
X33680D02*
D03*
X43180Y289400D02*
D03*
D39*
X50680Y224470D02*
D03*
X45680D02*
D03*
X40680D02*
D03*
X35680D02*
D03*
Y247970D02*
D03*
X40680D02*
D03*
X45680D02*
D03*
X50680D02*
D03*
D40*
X360680Y355680D02*
D03*
Y365680D02*
D03*
X627380Y147240D02*
D03*
Y137240D02*
D03*
X617220Y137160D02*
D03*
Y147160D02*
D03*
X78740Y348060D02*
D03*
Y358060D02*
D03*
X185420Y200580D02*
D03*
Y190580D02*
D03*
X248920D02*
D03*
Y200580D02*
D03*
X20320Y299800D02*
D03*
Y309800D02*
D03*
Y289400D02*
D03*
Y279400D02*
D03*
X68580Y299800D02*
D03*
Y309800D02*
D03*
Y279560D02*
D03*
Y289560D02*
D03*
X302260Y147240D02*
D03*
Y137240D02*
D03*
X292100D02*
D03*
Y147240D02*
D03*
X210820Y190660D02*
D03*
Y200660D02*
D03*
X220980Y190580D02*
D03*
Y200580D02*
D03*
X269240Y114220D02*
D03*
Y104220D02*
D03*
X248920Y114300D02*
D03*
Y104300D02*
D03*
X383540Y185500D02*
D03*
Y195500D02*
D03*
X434660Y184860D02*
D03*
Y194860D02*
D03*
X421960Y184860D02*
D03*
Y194860D02*
D03*
X396240Y185500D02*
D03*
Y195500D02*
D03*
X53340Y131920D02*
D03*
Y121920D02*
D03*
X63500Y122000D02*
D03*
Y132000D02*
D03*
X43180Y122000D02*
D03*
Y132000D02*
D03*
X53340Y94060D02*
D03*
Y104060D02*
D03*
X157480Y132080D02*
D03*
Y122080D02*
D03*
X299720Y190580D02*
D03*
Y200580D02*
D03*
X309880Y190580D02*
D03*
Y200580D02*
D03*
X269240Y190580D02*
D03*
Y200580D02*
D03*
X279400Y190660D02*
D03*
Y200660D02*
D03*
X289560Y190580D02*
D03*
Y200580D02*
D03*
D41*
X162480Y281940D02*
D03*
X152480D02*
D03*
X162480Y271780D02*
D03*
X152480D02*
D03*
X162400Y261620D02*
D03*
X152400D02*
D03*
X162480Y251460D02*
D03*
X152480D02*
D03*
X510460Y342900D02*
D03*
X500460D02*
D03*
X510460Y330200D02*
D03*
X500460D02*
D03*
X510460Y317500D02*
D03*
X500460D02*
D03*
X510460Y274320D02*
D03*
X500460D02*
D03*
X510460Y261620D02*
D03*
X500460D02*
D03*
X510460Y248920D02*
D03*
X500460D02*
D03*
X510460Y236220D02*
D03*
X500460D02*
D03*
X363140Y297180D02*
D03*
X353140D02*
D03*
X363140Y287020D02*
D03*
X353140D02*
D03*
X363140Y276860D02*
D03*
X353140D02*
D03*
X363140Y266700D02*
D03*
X353140D02*
D03*
X363140Y256540D02*
D03*
X353140D02*
D03*
X363140Y246380D02*
D03*
X353140D02*
D03*
X363300Y111760D02*
D03*
X373300D02*
D03*
X363300Y86360D02*
D03*
X373300D02*
D03*
Y99060D02*
D03*
X363300D02*
D03*
X363060Y226060D02*
D03*
X353060D02*
D03*
X363140Y215900D02*
D03*
X353140D02*
D03*
D42*
X167640Y352980D02*
D03*
Y342980D02*
D03*
X350520Y355680D02*
D03*
Y365680D02*
D03*
X154940Y352980D02*
D03*
Y342980D02*
D03*
X607060Y147240D02*
D03*
Y137240D02*
D03*
X226060Y147240D02*
D03*
Y137240D02*
D03*
X447040Y185500D02*
D03*
Y195500D02*
D03*
X88900Y289640D02*
D03*
Y299640D02*
D03*
X147320Y226140D02*
D03*
Y236140D02*
D03*
X20320Y226140D02*
D03*
Y236140D02*
D03*
X81280Y246460D02*
D03*
Y256460D02*
D03*
Y226140D02*
D03*
Y236140D02*
D03*
X68580Y226140D02*
D03*
Y236140D02*
D03*
X142240Y122080D02*
D03*
Y132080D02*
D03*
D43*
X193120Y104140D02*
D03*
X203120D02*
D03*
X510460Y287020D02*
D03*
X500460D02*
D03*
X510460Y297180D02*
D03*
X500460D02*
D03*
X373300Y73660D02*
D03*
X363300D02*
D03*
X373300Y124460D02*
D03*
X363300D02*
D03*
M02*
