G04*
G04 #@! TF.GenerationSoftware,Altium Limited,Altium Designer,22.9.1 (49)*
G04*
G04 Layer_Physical_Order=1*
G04 Layer_Color=255*
%FSLAX44Y44*%
%MOMM*%
G71*
G04*
G04 #@! TF.SameCoordinates,B13B86A1-C59C-446D-9954-5AC39BAABFE9*
G04*
G04*
G04 #@! TF.FilePolarity,Positive*
G04*
G01*
G75*
%ADD10C,0.2500*%
%ADD12C,0.2000*%
%ADD15R,0.5000X0.5000*%
%ADD16C,0.2500*%
%ADD17R,2.2000X1.2000*%
%ADD18R,1.5000X1.6000*%
%ADD19R,1.5000X1.2000*%
%ADD20R,1.6000X0.7000*%
%ADD21R,1.0000X0.7000*%
%ADD22R,0.3000X0.7000*%
%ADD23R,1.0000X1.4000*%
%ADD24R,0.8000X2.0000*%
%ADD25R,2.0000X0.8000*%
%ADD26R,0.7000X0.9000*%
%ADD27R,1.1000X0.6000*%
%ADD28R,0.6000X1.1000*%
%ADD29R,1.2000X1.2000*%
%ADD30R,0.8000X0.4000*%
%ADD31R,0.8000X0.4000*%
%ADD32R,0.4000X0.8000*%
%ADD33R,0.8000X0.8000*%
G04:AMPARAMS|DCode=34|XSize=1.55mm|YSize=0.6mm|CornerRadius=0.075mm|HoleSize=0mm|Usage=FLASHONLY|Rotation=270.000|XOffset=0mm|YOffset=0mm|HoleType=Round|Shape=RoundedRectangle|*
%AMROUNDEDRECTD34*
21,1,1.5500,0.4500,0,0,270.0*
21,1,1.4000,0.6000,0,0,270.0*
1,1,0.1500,-0.2250,-0.7000*
1,1,0.1500,-0.2250,0.7000*
1,1,0.1500,0.2250,0.7000*
1,1,0.1500,0.2250,-0.7000*
%
%ADD34ROUNDEDRECTD34*%
%ADD35R,0.6000X0.4000*%
G04:AMPARAMS|DCode=36|XSize=0.35mm|YSize=0.85mm|CornerRadius=0.0438mm|HoleSize=0mm|Usage=FLASHONLY|Rotation=90.000|XOffset=0mm|YOffset=0mm|HoleType=Round|Shape=RoundedRectangle|*
%AMROUNDEDRECTD36*
21,1,0.3500,0.7625,0,0,90.0*
21,1,0.2625,0.8500,0,0,90.0*
1,1,0.0875,0.3813,0.1313*
1,1,0.0875,0.3813,-0.1313*
1,1,0.0875,-0.3813,-0.1313*
1,1,0.0875,-0.3813,0.1313*
%
%ADD36ROUNDEDRECTD36*%
G04:AMPARAMS|DCode=37|XSize=0.35mm|YSize=0.85mm|CornerRadius=0.0438mm|HoleSize=0mm|Usage=FLASHONLY|Rotation=0.000|XOffset=0mm|YOffset=0mm|HoleType=Round|Shape=RoundedRectangle|*
%AMROUNDEDRECTD37*
21,1,0.3500,0.7625,0,0,0.0*
21,1,0.2625,0.8500,0,0,0.0*
1,1,0.0875,0.1313,-0.3813*
1,1,0.0875,-0.1313,-0.3813*
1,1,0.0875,-0.1313,0.3813*
1,1,0.0875,0.1313,0.3813*
%
%ADD37ROUNDEDRECTD37*%
%ADD38R,0.6900X0.9900*%
%ADD39R,0.8000X0.9000*%
%ADD40R,0.2500X0.5500*%
%ADD41R,0.6000X0.5000*%
%ADD42R,0.5000X0.6000*%
%ADD43R,0.5000X0.5000*%
%AMCUSTOMSHAPE78*
4,1,7,0.6500,-0.0761,0.5489,-0.1772,0.5485,-0.1750,-0.5533,-0.1750,-0.6500,-0.0767,-0.6500,0.1750,0.6500,0.1750,0.6500,-0.0761,0.0*%
%ADD78CUSTOMSHAPE78*%

%AMCUSTOMSHAPE79*
4,1,8,-0.0734,1.1500,-0.1738,1.0496,-0.1750,1.0496,-0.1750,-1.0466,-0.0733,-1.1474,-0.0733,-1.1500,0.1750,-1.1500,0.1750,1.1500,-0.0734,1.1500,0.0*%
%ADD79CUSTOMSHAPE79*%

%AMCUSTOMSHAPE80*
4,1,7,0.6500,0.0761,0.5489,0.1772,0.5485,0.1750,-0.5533,0.1750,-0.6500,0.0767,-0.6500,-0.1750,0.6500,-0.1750,0.6500,0.0761,0.0*%
%ADD80CUSTOMSHAPE80*%

%AMCUSTOMSHAPE81*
4,1,8,0.0734,1.1500,0.1738,1.0496,0.1750,1.0496,0.1750,-1.0466,0.0733,-1.1474,0.0733,-1.1500,-0.1750,-1.1500,-0.1750,1.1500,0.0734,1.1500,0.0*%
%ADD81CUSTOMSHAPE81*%

%AMCUSTOMSHAPE82*
4,1,4,-0.2250,0.4750,-0.2250,-0.4750,0.2250,-0.4750,0.2250,0.4750,-0.2250,0.4750,0.0*%
%ADD82CUSTOMSHAPE82*%

%AMCUSTOMSHAPE83*
4,1,6,-0.2250,0.3260,-0.0830,0.4750,0.2250,0.4750,0.2250,-0.4750,-0.2250,-0.4750,-0.2250,-0.4750,-0.2250,0.3260,0.0*%
%ADD83CUSTOMSHAPE83*%

G04:AMPARAMS|DCode=84|XSize=1.5mm|YSize=3mm|CornerRadius=0.375mm|HoleSize=0mm|Usage=FLASHONLY|Rotation=180.000|XOffset=0mm|YOffset=0mm|HoleType=Round|Shape=RoundedRectangle|*
%AMROUNDEDRECTD84*
21,1,1.5000,2.2500,0,0,180.0*
21,1,0.7500,3.0000,0,0,180.0*
1,1,0.7500,-0.3750,1.1250*
1,1,0.7500,0.3750,1.1250*
1,1,0.7500,0.3750,-1.1250*
1,1,0.7500,-0.3750,-1.1250*
%
%ADD84ROUNDEDRECTD84*%
%ADD85C,0.7870*%
%AMCUSTOMSHAPE86*
4,1,5,-1.0000,-1.0000,0.0000,0.0000,1.0000,-1.0000,1.0000,1.0000,-1.0000,1.0000,-1.0000,-1.0000,0.0*%
%ADD86CUSTOMSHAPE86*%

%AMCUSTOMSHAPE87*
4,1,6,-1.0000,1.0320,0.0000,2.0320,1.0000,1.0000,1.0000,-1.0000,-1.0000,-1.0000,-1.0000,-1.0000,-1.0000,1.0320,0.0*%
%ADD87CUSTOMSHAPE87*%

%AMCUSTOMSHAPE88*
4,1,5,-0.0010,0.6000,-0.6000,0.0010,-0.6000,-0.6000,0.6000,-0.6000,0.6000,0.6000,-0.0010,0.6000,0.0*%
%ADD88CUSTOMSHAPE88*%

%AMCUSTOMSHAPE89*
4,1,6,0.8000,0.2286,0.7874,0.2286,0.5080,0.5000,-0.8000,0.5000,-0.8000,-0.5000,0.8000,-0.5000,0.8000,0.2286,0.0*%
%ADD89CUSTOMSHAPE89*%

%ADD90C,0.1475*%
%ADD91C,0.3810*%
%ADD92C,0.2540*%
%ADD93C,0.1710*%
%ADD94C,0.5080*%
%ADD95C,0.1397*%
%ADD96C,0.1524*%
%ADD97C,0.0813*%
%ADD98C,0.4000*%
%ADD99C,0.2794*%
%ADD100C,0.1270*%
%ADD101C,0.3000*%
%ADD102C,0.6350*%
%ADD103C,0.0889*%
G04:AMPARAMS|DCode=104|XSize=1.1mm|YSize=2.1mm|CornerRadius=0.55mm|HoleSize=0mm|Usage=FLASHONLY|Rotation=0.000|XOffset=0mm|YOffset=0mm|HoleType=Round|Shape=RoundedRectangle|*
%AMROUNDEDRECTD104*
21,1,1.1000,1.0000,0,0,0.0*
21,1,0.0000,2.1000,0,0,0.0*
1,1,1.1000,0.0000,-0.5000*
1,1,1.1000,0.0000,-0.5000*
1,1,1.1000,0.0000,0.5000*
1,1,1.1000,0.0000,0.5000*
%
%ADD104ROUNDEDRECTD104*%
G04:AMPARAMS|DCode=105|XSize=1.1mm|YSize=2.6mm|CornerRadius=0.55mm|HoleSize=0mm|Usage=FLASHONLY|Rotation=0.000|XOffset=0mm|YOffset=0mm|HoleType=Round|Shape=RoundedRectangle|*
%AMROUNDEDRECTD105*
21,1,1.1000,1.5000,0,0,0.0*
21,1,0.0000,2.6000,0,0,0.0*
1,1,1.1000,0.0000,-0.7500*
1,1,1.1000,0.0000,-0.7500*
1,1,1.1000,0.0000,0.7500*
1,1,1.1000,0.0000,0.7500*
%
%ADD105ROUNDEDRECTD105*%
%ADD106C,0.6000*%
%ADD107C,0.4500*%
%ADD108C,0.7000*%
%ADD109C,0.5000*%
G36*
X236220Y101600D02*
X238760Y99060D01*
X241300D01*
Y94253D01*
X241187Y93980D01*
X233680D01*
Y99060D01*
X231140Y101600D01*
X220980D01*
X215900Y96520D01*
X190500D01*
Y121920D01*
X195580D01*
Y114300D01*
X198120Y111760D01*
Y99060D01*
X208280D01*
Y121920D01*
X236220D01*
Y101600D01*
D02*
G37*
G36*
X342900Y358140D02*
X330169D01*
Y358289D01*
X320391D01*
Y358140D01*
X193040D01*
X190500Y355600D01*
Y345440D01*
X180340D01*
X175260Y350520D01*
X149860D01*
Y370840D01*
X342900D01*
Y358140D01*
D02*
G37*
G36*
G01X121920Y259380D02*
G01X127300Y254000D01*
G01Y236630D01*
G02X124050Y233380I-3250J0D01*
G01X104550D01*
G02X101300Y236630I0J3250D01*
G01Y256130D01*
G02X104550Y259380I3250J0D01*
G01X121920D01*
D02*
G37*
D10*
X94550Y248880D02*
X111800D01*
X81280Y246460D02*
X83700Y248880D01*
X94550D01*
D12*
X45720Y238760D02*
Y247930D01*
X43180Y236220D02*
X45720Y238760D01*
X45680Y247970D02*
X45720Y247930D01*
D15*
X269240Y160100D02*
D03*
Y170100D02*
D03*
X248920Y160100D02*
D03*
Y170100D02*
D03*
X167640Y352980D02*
D03*
Y342980D02*
D03*
X350520Y355680D02*
D03*
Y365680D02*
D03*
X154940Y352980D02*
D03*
Y342980D02*
D03*
X607060Y147240D02*
D03*
Y137240D02*
D03*
X226060Y147240D02*
D03*
Y137240D02*
D03*
X447040Y185500D02*
D03*
Y195500D02*
D03*
X90424Y320628D02*
D03*
Y330628D02*
D03*
X147320Y226140D02*
D03*
Y236140D02*
D03*
X20320Y226140D02*
D03*
Y236140D02*
D03*
X81280Y246460D02*
D03*
Y256460D02*
D03*
Y226140D02*
D03*
Y236140D02*
D03*
X68580Y226140D02*
D03*
Y236140D02*
D03*
X142240Y122080D02*
D03*
Y132080D02*
D03*
D16*
X407280Y139060D02*
D03*
Y144060D02*
D03*
X412280Y139060D02*
D03*
Y144060D02*
D03*
X407280Y79060D02*
D03*
Y84060D02*
D03*
Y89060D02*
D03*
Y94060D02*
D03*
Y99060D02*
D03*
X412280Y79060D02*
D03*
Y84060D02*
D03*
Y89060D02*
D03*
Y94060D02*
D03*
Y99060D02*
D03*
Y104060D02*
D03*
X417280Y79060D02*
D03*
Y84060D02*
D03*
Y89060D02*
D03*
Y94060D02*
D03*
Y99060D02*
D03*
X422280Y79060D02*
D03*
Y84060D02*
D03*
Y89060D02*
D03*
X427280Y79060D02*
D03*
Y84060D02*
D03*
Y89060D02*
D03*
Y99060D02*
D03*
X432280Y79060D02*
D03*
Y84060D02*
D03*
Y89060D02*
D03*
Y99060D02*
D03*
X437280Y79060D02*
D03*
Y84060D02*
D03*
Y89060D02*
D03*
Y99060D02*
D03*
X442280D02*
D03*
X407280Y104060D02*
D03*
Y109060D02*
D03*
Y114060D02*
D03*
Y134060D02*
D03*
Y124060D02*
D03*
Y129060D02*
D03*
Y119060D02*
D03*
X412280Y129060D02*
D03*
Y109060D02*
D03*
Y119060D02*
D03*
Y134060D02*
D03*
Y114060D02*
D03*
X417280Y104060D02*
D03*
X427280D02*
D03*
X417280Y109060D02*
D03*
X427280D02*
D03*
X417280Y114060D02*
D03*
X427280D02*
D03*
X417280Y119060D02*
D03*
X427280D02*
D03*
X412280Y124060D02*
D03*
X417280D02*
D03*
X427280D02*
D03*
X432280D02*
D03*
X437280D02*
D03*
X417280Y134060D02*
D03*
Y129060D02*
D03*
X422280Y129060D02*
D03*
X432280Y134060D02*
D03*
X427280D02*
D03*
X442280D02*
D03*
X437280D02*
D03*
X422280D02*
D03*
X417280Y139060D02*
D03*
X422280D02*
D03*
X432280D02*
D03*
X427280D02*
D03*
X437280D02*
D03*
X417280Y144060D02*
D03*
X432280D02*
D03*
X427280D02*
D03*
X442280D02*
D03*
X422280D02*
D03*
X437280D02*
D03*
X442280Y84060D02*
D03*
Y89060D02*
D03*
Y79060D02*
D03*
X447280Y84060D02*
D03*
Y89060D02*
D03*
Y79060D02*
D03*
Y99060D02*
D03*
X452280Y84060D02*
D03*
Y89060D02*
D03*
Y79060D02*
D03*
Y99060D02*
D03*
Y104060D02*
D03*
X457280Y89060D02*
D03*
Y84060D02*
D03*
Y79060D02*
D03*
X462280Y84060D02*
D03*
Y94060D02*
D03*
Y89060D02*
D03*
Y79060D02*
D03*
Y99060D02*
D03*
Y104060D02*
D03*
X467280Y84060D02*
D03*
Y89060D02*
D03*
Y94060D02*
D03*
Y79060D02*
D03*
Y99060D02*
D03*
Y104060D02*
D03*
X472280Y84060D02*
D03*
Y79060D02*
D03*
Y89060D02*
D03*
Y94060D02*
D03*
Y99060D02*
D03*
X442280Y124060D02*
D03*
Y139060D02*
D03*
X447280Y124060D02*
D03*
Y134060D02*
D03*
Y139060D02*
D03*
Y144060D02*
D03*
X452280Y109060D02*
D03*
Y114060D02*
D03*
Y119060D02*
D03*
Y124060D02*
D03*
Y139060D02*
D03*
Y134060D02*
D03*
Y144060D02*
D03*
X457280Y139060D02*
D03*
Y134060D02*
D03*
Y144060D02*
D03*
X472280Y104060D02*
D03*
X462280Y109060D02*
D03*
X467280D02*
D03*
X472280D02*
D03*
X462280Y114060D02*
D03*
X467280D02*
D03*
X472280D02*
D03*
X462280Y119060D02*
D03*
X467280D02*
D03*
X472280D02*
D03*
X462280Y124060D02*
D03*
X467280D02*
D03*
X472280D02*
D03*
X462280Y129060D02*
D03*
X467280D02*
D03*
X472280D02*
D03*
X462280Y134060D02*
D03*
X467280D02*
D03*
X472280D02*
D03*
X462280Y139060D02*
D03*
X467280D02*
D03*
X472280D02*
D03*
X462280Y144060D02*
D03*
X467280D02*
D03*
X472280D02*
D03*
D17*
X646240Y361320D02*
D03*
Y206320D02*
D03*
D18*
X550240Y352320D02*
D03*
D19*
Y206320D02*
D03*
D20*
X540240Y229320D02*
D03*
Y240320D02*
D03*
Y251320D02*
D03*
Y262320D02*
D03*
Y273320D02*
D03*
Y284320D02*
D03*
Y295320D02*
D03*
Y306320D02*
D03*
Y218320D02*
D03*
D21*
X290480Y74840D02*
D03*
X228480D02*
D03*
D22*
X236980D02*
D03*
X241980D02*
D03*
X246980D02*
D03*
X251980D02*
D03*
X256980D02*
D03*
X261980D02*
D03*
X266980D02*
D03*
X271980D02*
D03*
X276980D02*
D03*
X281980D02*
D03*
X289480Y87840D02*
D03*
X284480D02*
D03*
X279480D02*
D03*
X274480D02*
D03*
X269480D02*
D03*
X264480D02*
D03*
X254480D02*
D03*
X249480D02*
D03*
X244480D02*
D03*
X239480D02*
D03*
X234480D02*
D03*
X229480D02*
D03*
D23*
X212700Y167640D02*
D03*
X193700D02*
D03*
D24*
X90760Y353060D02*
D03*
X132760D02*
D03*
D25*
X617220Y85680D02*
D03*
Y127680D02*
D03*
D26*
X43180Y325460D02*
D03*
X52680Y304460D02*
D03*
X33680D02*
D03*
D27*
X246580Y149200D02*
D03*
Y139700D02*
D03*
Y130200D02*
D03*
X271580Y149200D02*
D03*
Y139700D02*
D03*
Y130200D02*
D03*
X114100Y99720D02*
D03*
Y109220D02*
D03*
Y118720D02*
D03*
X89100Y99720D02*
D03*
Y109220D02*
D03*
Y118720D02*
D03*
D28*
X462940Y317700D02*
D03*
X472440D02*
D03*
X481940D02*
D03*
X462940Y342700D02*
D03*
X472440D02*
D03*
X481940D02*
D03*
X462940Y238960D02*
D03*
X472440D02*
D03*
X481940D02*
D03*
X462940Y263960D02*
D03*
X472440D02*
D03*
X481940D02*
D03*
D29*
X255280Y312400D02*
D03*
X238780Y295900D02*
D03*
Y279400D02*
D03*
X255280D02*
D03*
X271780D02*
D03*
Y295900D02*
D03*
Y312400D02*
D03*
X255280Y295900D02*
D03*
D30*
X325280Y304400D02*
D03*
Y261900D02*
D03*
Y287400D02*
D03*
Y236400D02*
D03*
Y244900D02*
D03*
Y253400D02*
D03*
Y270400D02*
D03*
Y278900D02*
D03*
Y295900D02*
D03*
Y312900D02*
D03*
Y321400D02*
D03*
Y329900D02*
D03*
Y338400D02*
D03*
Y346900D02*
D03*
Y355400D02*
D03*
D31*
X185280D02*
D03*
Y346900D02*
D03*
Y338400D02*
D03*
Y329900D02*
D03*
Y321400D02*
D03*
Y312900D02*
D03*
Y304400D02*
D03*
Y295900D02*
D03*
Y287400D02*
D03*
Y278900D02*
D03*
Y270400D02*
D03*
Y261900D02*
D03*
Y253400D02*
D03*
Y244900D02*
D03*
Y236400D02*
D03*
D32*
X195780Y225900D02*
D03*
X314780Y365900D02*
D03*
X306280D02*
D03*
X297780D02*
D03*
X289280D02*
D03*
X280780D02*
D03*
X272280D02*
D03*
X263780D02*
D03*
X255280D02*
D03*
X246780D02*
D03*
X238280D02*
D03*
X229780D02*
D03*
X221280D02*
D03*
X204280D02*
D03*
X195780D02*
D03*
X212780D02*
D03*
X204280Y225900D02*
D03*
X306280D02*
D03*
X314780D02*
D03*
X289280D02*
D03*
X297780D02*
D03*
X272280D02*
D03*
X255280D02*
D03*
X263780D02*
D03*
X238280D02*
D03*
X246780D02*
D03*
X221280D02*
D03*
X229780D02*
D03*
X212780D02*
D03*
X280780D02*
D03*
D33*
X185280Y365900D02*
D03*
Y225900D02*
D03*
X325280D02*
D03*
Y365900D02*
D03*
D34*
X82550Y140640D02*
D03*
X95250D02*
D03*
X107950D02*
D03*
X120650D02*
D03*
X82550Y194640D02*
D03*
X95250D02*
D03*
X107950D02*
D03*
X120650D02*
D03*
D35*
X198120Y191580D02*
D03*
Y199580D02*
D03*
X236220Y198818D02*
D03*
Y190818D02*
D03*
D36*
X134030Y258880D02*
D03*
Y253880D02*
D03*
Y248880D02*
D03*
Y243880D02*
D03*
Y238880D02*
D03*
Y233880D02*
D03*
X94550D02*
D03*
Y238880D02*
D03*
Y243880D02*
D03*
Y248880D02*
D03*
Y253880D02*
D03*
Y258880D02*
D03*
D37*
X126800Y226630D02*
D03*
X121800D02*
D03*
X116800D02*
D03*
X111800D02*
D03*
X106800D02*
D03*
X101800D02*
D03*
Y266130D02*
D03*
X106800D02*
D03*
X111800D02*
D03*
X116800D02*
D03*
X121800D02*
D03*
X126800D02*
D03*
D38*
X212040Y144780D02*
D03*
X193040D02*
D03*
X212040Y118880D02*
D03*
X202540D02*
D03*
X193040D02*
D03*
D39*
X52680Y269400D02*
D03*
X33680D02*
D03*
X43180Y289400D02*
D03*
D40*
X50680Y224470D02*
D03*
X45680D02*
D03*
X40680D02*
D03*
X35680D02*
D03*
Y247970D02*
D03*
X40680D02*
D03*
X45680D02*
D03*
X50680D02*
D03*
D41*
X360680Y355680D02*
D03*
Y365680D02*
D03*
X627380Y147240D02*
D03*
Y137240D02*
D03*
X617220Y137160D02*
D03*
Y147160D02*
D03*
X78740Y348060D02*
D03*
Y358060D02*
D03*
X185420Y200580D02*
D03*
Y190580D02*
D03*
X248920D02*
D03*
Y200580D02*
D03*
X20320Y299800D02*
D03*
Y309800D02*
D03*
Y289400D02*
D03*
Y279400D02*
D03*
X68580Y299800D02*
D03*
Y309800D02*
D03*
Y279560D02*
D03*
Y289560D02*
D03*
X302260Y147240D02*
D03*
Y137240D02*
D03*
X292100D02*
D03*
Y147240D02*
D03*
X210820Y190660D02*
D03*
Y200660D02*
D03*
X220980Y190580D02*
D03*
Y200580D02*
D03*
X269240Y114220D02*
D03*
Y104220D02*
D03*
X248920Y114300D02*
D03*
Y104300D02*
D03*
X383540Y185500D02*
D03*
Y195500D02*
D03*
X434660Y184860D02*
D03*
Y194860D02*
D03*
X421960Y184860D02*
D03*
Y194860D02*
D03*
X396240Y185500D02*
D03*
Y195500D02*
D03*
X53340Y131920D02*
D03*
Y121920D02*
D03*
X63500Y122000D02*
D03*
Y132000D02*
D03*
X43180Y122000D02*
D03*
Y132000D02*
D03*
X53340Y94060D02*
D03*
Y104060D02*
D03*
X157480Y132080D02*
D03*
Y122080D02*
D03*
X299720Y190580D02*
D03*
Y200580D02*
D03*
X309880Y190580D02*
D03*
Y200580D02*
D03*
X269240Y190580D02*
D03*
Y200580D02*
D03*
X279400Y190660D02*
D03*
Y200660D02*
D03*
X289560Y190580D02*
D03*
Y200580D02*
D03*
D42*
X162480Y281940D02*
D03*
X152480D02*
D03*
X162480Y271780D02*
D03*
X152480D02*
D03*
X162400Y261620D02*
D03*
X152400D02*
D03*
X162480Y251460D02*
D03*
X152480D02*
D03*
X510460Y342900D02*
D03*
X500460D02*
D03*
X510460Y330200D02*
D03*
X500460D02*
D03*
X510460Y317500D02*
D03*
X500460D02*
D03*
X510460Y274320D02*
D03*
X500460D02*
D03*
X510460Y261620D02*
D03*
X500460D02*
D03*
X510460Y248920D02*
D03*
X500460D02*
D03*
X510460Y236220D02*
D03*
X500460D02*
D03*
X363140Y297180D02*
D03*
X353140D02*
D03*
X363140Y287020D02*
D03*
X353140D02*
D03*
X363140Y276860D02*
D03*
X353140D02*
D03*
X363140Y266700D02*
D03*
X353140D02*
D03*
X363140Y256540D02*
D03*
X353140D02*
D03*
X363140Y246380D02*
D03*
X353140D02*
D03*
X363300Y111760D02*
D03*
X373300D02*
D03*
X363300Y86360D02*
D03*
X373300D02*
D03*
Y99060D02*
D03*
X363300D02*
D03*
X363060Y226060D02*
D03*
X353060D02*
D03*
X363140Y215900D02*
D03*
X353140D02*
D03*
D43*
X193120Y104140D02*
D03*
X203120D02*
D03*
X510460Y287020D02*
D03*
X500460D02*
D03*
X510460Y297180D02*
D03*
X500460D02*
D03*
X373300Y73660D02*
D03*
X363300D02*
D03*
X373300Y124460D02*
D03*
X363300D02*
D03*
D78*
X114486Y323936D02*
D03*
D79*
X126736Y306686D02*
D03*
D80*
X114486Y289436D02*
D03*
D81*
X102236Y306686D02*
D03*
D82*
X118736Y313436D02*
D03*
Y299936D02*
D03*
X110236D02*
D03*
D83*
Y313436D02*
D03*
D84*
X63500Y30480D02*
D03*
X88900D02*
D03*
X114300D02*
D03*
X139700D02*
D03*
D85*
X405130Y337820D02*
D03*
Y350520D02*
D03*
Y325120D02*
D03*
X417830D02*
D03*
Y337820D02*
D03*
Y350520D02*
D03*
D86*
X53340Y179070D02*
D03*
X149860Y97790D02*
D03*
Y180340D02*
D03*
D87*
X53340Y153670D02*
D03*
X149860Y72390D02*
D03*
Y154940D02*
D03*
D88*
X238780Y312400D02*
D03*
D89*
X43180Y236220D02*
D03*
D90*
X260712Y160274D02*
Y221773D01*
Y151462D02*
Y160274D01*
X260886Y160100D01*
X269240D01*
X258348Y160020D02*
Y221773D01*
Y151462D02*
Y160020D01*
X249000D02*
X258348D01*
X260712Y130200D02*
Y151462D01*
X269317D01*
X248843D02*
X258348D01*
Y130200D02*
Y151462D01*
X246580Y130200D02*
X258348D01*
Y79737D02*
Y130200D01*
X260712Y78108D02*
Y130200D01*
X271580D01*
X260712Y78108D02*
X261980Y76840D01*
Y74840D02*
Y76840D01*
Y74840D02*
X262145Y74675D01*
X264080Y87840D02*
X264525Y88285D01*
X257484Y222638D02*
X258348Y221773D01*
X258348Y79737D02*
X258348Y79737D01*
X258348Y78208D02*
Y79737D01*
X257342Y75880D02*
Y77203D01*
X255280Y223900D02*
X256542Y222638D01*
X257484D01*
X255280Y223900D02*
Y225900D01*
X246580Y149200D02*
X248843Y151462D01*
X257342Y77203D02*
X258348Y78208D01*
X256760Y68800D02*
Y74620D01*
X256980Y74840D01*
X256540Y68580D02*
X256760Y68800D01*
X264525Y88285D02*
Y96075D01*
X264970Y96520D01*
X262518Y222638D02*
X263780Y223900D01*
X269317Y151462D02*
X271580Y149200D01*
X263780Y223900D02*
Y225900D01*
X261576Y222638D02*
X262518D01*
X262145Y68745D02*
X262310Y68580D01*
X262145Y68745D02*
Y74675D01*
X260712Y221773D02*
X261576Y222638D01*
X254000Y96520D02*
X254040Y96480D01*
Y87880D02*
Y96480D01*
Y87880D02*
X254080Y87840D01*
D91*
X269240Y170100D02*
X269280Y170140D01*
X279360D01*
X279400Y170180D01*
X248920Y170100D02*
Y182880D01*
X102236Y297052D02*
Y306686D01*
X112776Y329494D02*
X113386Y328884D01*
Y325036D02*
X114486Y323936D01*
X113386Y325036D02*
Y328884D01*
X91694Y308610D02*
X92291Y308013D01*
X100909D02*
X102236Y306686D01*
X92291Y308013D02*
X100909D01*
X128406Y308356D02*
X138430D01*
X126736Y306686D02*
X127993Y307943D01*
X236220Y182880D02*
Y190818D01*
X325280Y334150D02*
Y338400D01*
Y329900D02*
Y334150D01*
X326690Y332740D01*
X337820D01*
X126955Y224285D02*
X132080Y219160D01*
Y218440D02*
Y219160D01*
X20320Y236140D02*
X20400Y236220D01*
X43180D01*
X48260Y215900D02*
Y231140D01*
X43180Y236220D02*
X48260Y231140D01*
X53340Y179070D02*
Y198120D01*
X162560Y187960D02*
X175260Y200660D01*
X149860Y180340D02*
X157480Y187960D01*
X162560D01*
X175300Y200620D02*
X185380D01*
X175260Y200660D02*
X175300Y200620D01*
X185380D02*
X185420Y200580D01*
X185200Y225980D02*
X185280Y225900D01*
X165180Y225980D02*
X185200D01*
X165100Y226060D02*
X165180Y225980D01*
X165060Y226100D02*
X165100Y226060D01*
X147320Y226140D02*
X147360Y226100D01*
X165060D01*
X126645Y226785D02*
X126800Y226630D01*
X126645Y226785D02*
Y234035D01*
X114300Y246380D02*
X126645Y234035D01*
X151805Y262715D02*
X152400Y262120D01*
X144780Y266700D02*
X148765Y262715D01*
X152400Y261620D02*
Y262120D01*
X148765Y262715D02*
X151805D01*
X151885Y270685D02*
X152480Y271280D01*
X149358Y270685D02*
X151885D01*
X145373Y266700D02*
X149358Y270685D01*
X152480Y271280D02*
Y271780D01*
X144953Y251467D02*
X152473D01*
X144946Y251474D02*
X144953Y251467D01*
X152473D02*
X152480Y251460D01*
X144780Y281940D02*
X152480D01*
X172640Y342980D02*
X177220Y338400D01*
X167640Y342980D02*
X172640D01*
X177220Y338400D02*
X185280D01*
X154940Y342980D02*
X167640D01*
Y335732D02*
Y342980D01*
X154940Y335732D02*
Y342980D01*
D92*
X90852Y321056D02*
X105410D01*
X110236Y313436D02*
Y316230D01*
X105410Y321056D02*
X110236Y316230D01*
X90424Y320628D02*
X90852Y321056D01*
X102236Y301278D02*
Y306686D01*
X103578Y299936D02*
X110236D01*
X102236Y301278D02*
X103578Y299936D01*
X102236Y291464D02*
Y297052D01*
X114362Y289560D02*
X114486Y289436D01*
X104140Y289560D02*
X114362D01*
X102236Y291464D02*
X104140Y289560D01*
X90424Y330628D02*
X91558Y329494D01*
X112776D01*
X53340Y115507D02*
Y121920D01*
X55880Y111760D02*
Y112967D01*
X53340Y115507D02*
X55880Y112967D01*
X81360Y256540D02*
X86360Y261540D01*
Y261620D01*
X396240Y81280D02*
X404787D01*
X411480Y73660D02*
X414020D01*
X416560Y76200D01*
Y78340D01*
X417280Y79060D01*
X422280Y75560D02*
Y79060D01*
Y75560D02*
X428598Y69242D01*
X431138D01*
X431800Y68580D01*
X422280Y86560D02*
Y89060D01*
Y84060D02*
Y86560D01*
X434477Y91577D02*
X435632Y92732D01*
X445792D01*
X447280Y94220D02*
Y99060D01*
X445792Y92732D02*
X447280Y94220D01*
Y99060D02*
X452280Y104060D01*
X432280Y69060D02*
Y79060D01*
X431800Y68580D02*
X432280Y69060D01*
X441960Y109060D02*
X452280D01*
X437280Y104380D02*
X441960Y109060D01*
X437280Y104060D02*
Y104380D01*
Y104060D02*
X442280Y99060D01*
X441720Y114060D02*
X441960Y114300D01*
X437280Y114060D02*
X441720D01*
X441960Y109060D02*
Y114300D01*
X437280Y114060D02*
Y124060D01*
X427280Y114060D02*
X437280D01*
X432280Y149272D02*
X433678Y150670D01*
Y156818D02*
X434340Y157480D01*
X432280Y144060D02*
Y149272D01*
X433678Y150670D02*
Y156818D01*
X432280Y124060D02*
Y134060D01*
X427280Y84060D02*
X432280Y79060D01*
X422280Y84060D02*
X427280Y79060D01*
X427280D01*
Y119060D02*
X432280Y124060D01*
X427280Y104060D02*
X437280D01*
X417280Y79060D02*
X422280Y84060D01*
X238921Y124299D02*
X247190Y116030D01*
X236220Y129540D02*
X238921Y126839D01*
Y124299D02*
Y126839D01*
X248420Y114300D02*
X248920D01*
X247190Y115530D02*
Y116030D01*
Y115530D02*
X248420Y114300D01*
X231140Y129540D02*
X236220D01*
D93*
X142104Y291592D02*
X163412Y312900D01*
X118736Y297570D02*
X124714Y291592D01*
X142104D01*
X118736Y297570D02*
Y299936D01*
Y313436D02*
Y315840D01*
X124296Y321400D02*
X185280D01*
X118736Y315840D02*
X124296Y321400D01*
X163412Y312900D02*
X185280D01*
X238982Y200580D02*
X248920D01*
X237220Y198818D02*
X238982Y200580D01*
X236220Y198818D02*
X237220D01*
X82654Y255086D02*
X85114D01*
X86320Y253880D02*
X94550D01*
X81280Y256460D02*
X82654Y255086D01*
X85114D02*
X86320Y253880D01*
X353609Y83775D02*
X356104Y81280D01*
X350475Y86777D02*
X353477Y83775D01*
X350475Y86777D02*
Y86909D01*
X335280Y102104D02*
X345440Y91944D01*
X353477Y83775D02*
X353609D01*
X345440Y91944D02*
X350475Y86909D01*
X335280Y102104D02*
Y125040D01*
X269740Y190580D02*
X335280Y125040D01*
X345440Y109085D02*
X359132Y95393D01*
X360133Y94392D02*
X360545Y93980D01*
X359132Y95369D02*
X360109Y94392D01*
X360133D01*
X359132Y95369D02*
Y95393D01*
X342900Y111625D02*
X345440Y109085D01*
X281638Y185722D02*
X342900Y124460D01*
Y111625D02*
Y124460D01*
X291003Y183977D02*
X345440Y129540D01*
X350475Y124505D01*
X291003Y183977D02*
Y189137D01*
X350475Y122337D02*
Y124505D01*
X289560Y190580D02*
X291003Y189137D01*
X358185Y119335D02*
X360680Y116840D01*
X353477Y119335D02*
X358185D01*
X350475Y122337D02*
X353477Y119335D01*
X360680Y116840D02*
X373300D01*
X317500Y215900D02*
X353140D01*
X314780Y218620D02*
X317500Y215900D01*
X488454Y243840D02*
X490592D01*
X490637Y243795D02*
X494883D01*
X494928Y243840D02*
X505880D01*
X490592D02*
X490637Y243795D01*
X494883D02*
X494928Y243840D01*
X490592Y256540D02*
X490637Y256495D01*
X494883D01*
X494928Y256540D02*
X505880D01*
X465178D02*
X490592D01*
X494883Y256495D02*
X494928Y256540D01*
X503775Y278971D02*
X510540D01*
X497238Y279064D02*
X503682D01*
X503775Y278971D01*
X497145D02*
X497238Y279064D01*
X482543Y278971D02*
X497145D01*
X462940Y360680D02*
X470017D01*
X474770Y360773D02*
X474863Y360680D01*
X462280D02*
X462940D01*
X470110Y360773D02*
X474770D01*
X474863Y360680D02*
X493180D01*
X470017D02*
X470110Y360773D01*
X429260Y208280D02*
X439420Y198120D01*
X411480Y226060D02*
X429260Y208280D01*
X363060Y226060D02*
X411480D01*
X439420Y184860D02*
Y198120D01*
X398938Y200660D02*
X401320Y198279D01*
Y186393D02*
Y198279D01*
X360572Y200660D02*
X398938D01*
X350491Y190580D02*
X360572Y200660D01*
X143224Y246169D02*
X157689D01*
X162480Y250960D01*
X134030Y253880D02*
X134925Y252985D01*
X149268Y256540D02*
X157820D01*
X146928Y258880D02*
X149268Y256540D01*
X157820D02*
X162400Y261120D01*
X83746Y231140D02*
X85896Y233290D01*
Y240836D01*
X94510Y243840D02*
X94550Y243880D01*
X85896Y240836D02*
X88900Y243840D01*
X94510D01*
X73580Y231140D02*
X83746D01*
X68580Y226140D02*
X73580Y231140D01*
X88900Y276860D02*
X90670D01*
X132139Y276919D02*
X142240Y287020D01*
X90729Y276919D02*
X132139D01*
X90670Y276860D02*
X90729Y276919D01*
X66040Y254000D02*
X88900Y276860D01*
X91805Y274320D02*
X147054D01*
X149258Y276524D01*
X158236D02*
X162480Y272280D01*
X78189Y260704D02*
X91805Y274320D01*
X149258Y276524D02*
X158236D01*
X78058Y260704D02*
X78189D01*
X77036Y259551D02*
Y259682D01*
X78058Y260704D01*
X67443Y249958D02*
X77036Y259551D01*
X157900Y287020D02*
X162480Y282440D01*
X142240Y287020D02*
X142612D01*
X146948D02*
X157900D01*
X142657Y287065D02*
X146903D01*
X146948Y287020D01*
X142612D02*
X142657Y287065D01*
X132760Y339680D02*
X142540Y329900D01*
X185280D01*
X386080Y81280D02*
X396240Y91440D01*
X373300Y81280D02*
X386080D01*
Y93980D02*
X388724Y96624D01*
X373300Y93980D02*
X386080D01*
X439780Y146617D02*
X441960Y148797D01*
Y149860D01*
X427280Y144060D02*
Y163120D01*
X439420Y175260D01*
Y184860D01*
X373300Y116840D02*
X390505D01*
X403585Y103760D02*
Y103760D01*
X390505Y116840D02*
X403585Y103760D01*
X391160Y124460D02*
X398237Y131537D01*
X373300Y124460D02*
X391160D01*
X417280Y144060D02*
Y151680D01*
X422280Y144060D02*
Y172080D01*
X416716Y177644D02*
Y184860D01*
Y177644D02*
X422280Y172080D01*
X401320Y167640D02*
Y186393D01*
Y167640D02*
X417280Y151680D01*
X383540Y160020D02*
X401969Y141591D01*
X292100Y147240D02*
X302260D01*
X286600Y139700D02*
X287322Y138978D01*
X290362D01*
X292100Y137240D01*
X271580Y139700D02*
X286600D01*
X434660Y184860D02*
X439420D01*
X396240Y215900D02*
X416716Y195424D01*
X363140Y215900D02*
X396240D01*
X416716Y184860D02*
Y195424D01*
Y184860D02*
X421960D01*
X335869Y236400D02*
X346209Y226060D01*
X353060D01*
X314780Y218620D02*
Y225900D01*
X325280Y236400D02*
X335869D01*
X396240Y185500D02*
X397133Y186393D01*
X401320D01*
X309880Y190580D02*
X350491D01*
X309880Y200580D02*
Y213360D01*
X306280Y216960D02*
X309880Y213360D01*
X306280Y216960D02*
Y225900D01*
X383540Y160020D02*
Y185500D01*
X300613Y185420D02*
X383460D01*
X299720Y186313D02*
X300613Y185420D01*
X299720Y186313D02*
Y190580D01*
X383460Y185420D02*
X383540Y185500D01*
X299720Y200580D02*
Y213360D01*
X297780Y215300D02*
X299720Y213360D01*
X297780Y215300D02*
Y225900D01*
X360545Y93980D02*
X373300D01*
Y99060D01*
X356104Y81280D02*
X373300D01*
Y86360D01*
X269240Y190580D02*
X269740D01*
X279900Y190660D02*
X281638Y188922D01*
X279400Y190660D02*
X279900D01*
X281638Y185722D02*
Y188922D01*
X269240Y200580D02*
Y213360D01*
X272280Y216400D02*
Y225900D01*
X269240Y213360D02*
X272280Y216400D01*
X280780Y214740D02*
Y225900D01*
X279400Y213360D02*
X280780Y214740D01*
X279400Y200660D02*
Y213360D01*
X289560Y200580D02*
Y225620D01*
X289280Y225900D02*
X289560Y225620D01*
X373300Y111760D02*
Y116508D01*
X334220Y244900D02*
X342900Y236220D01*
X436880D01*
X325280Y244900D02*
X334220D01*
X195780Y233880D02*
X200660Y238760D01*
X195780Y225900D02*
Y233880D01*
X617220Y147240D02*
X627380D01*
X607060D02*
X617220D01*
Y154940D01*
X120650Y195882D02*
X122888Y198120D01*
X132080D01*
X120650Y194640D02*
Y195882D01*
X95250Y194640D02*
X107950D01*
X108585Y195275D01*
Y207645D01*
X109220Y208280D01*
X82550Y204470D02*
X86360Y208280D01*
X82550Y194640D02*
Y204470D01*
X246780Y219251D02*
X248920Y217111D01*
Y215900D02*
Y217111D01*
X246780Y219251D02*
Y225900D01*
X238520Y213600D02*
Y225660D01*
X238280Y225900D02*
X238520Y225660D01*
Y213600D02*
X238760Y213360D01*
X229190Y225310D02*
X229780Y225900D01*
X229190Y211410D02*
Y225310D01*
X228600Y210820D02*
X229190Y211410D01*
X94550Y238880D02*
X106800D01*
X114300Y246380D01*
X126800Y258880D01*
Y266130D01*
X111800Y248880D02*
X114300Y246380D01*
X197970Y330050D02*
X198120Y330200D01*
X185430Y330050D02*
X197970D01*
X185280Y329900D02*
X185430Y330050D01*
X176540Y295900D02*
X185280D01*
X170180Y302260D02*
X176540Y295900D01*
X175260Y287020D02*
X184900D01*
X185280Y287400D01*
X170180Y292100D02*
X175260Y287020D01*
X510540Y309880D02*
X515620D01*
X490220D02*
X510540D01*
X520187Y297693D02*
Y305313D01*
X515620Y309880D02*
X520187Y305313D01*
X510540Y310244D02*
Y316920D01*
X477520Y297180D02*
X490220Y309880D01*
X510540Y218320D02*
X540240D01*
X482600D02*
X510540D01*
X510460Y218400D02*
X510540Y218320D01*
X454780D02*
X482600D01*
Y238300D01*
X481940Y263960D02*
X482543Y264563D01*
Y278971D01*
X477034Y284480D02*
X482543Y278971D01*
X460055Y284480D02*
X477034D01*
X464820Y297180D02*
Y315820D01*
Y297180D02*
X477520D01*
X458847D02*
X464820D01*
X441588Y266013D02*
X460055Y284480D01*
X493180Y360680D02*
X510460Y343400D01*
X459740Y360680D02*
X462280D01*
X462940Y360020D01*
X447040Y347980D02*
X459740Y360680D01*
X438527Y276860D02*
X458847Y297180D01*
X645160Y360240D02*
X646240Y361320D01*
X136694Y109685D02*
X138769Y111760D01*
X136694Y99060D02*
Y109685D01*
Y85555D02*
Y99060D01*
X136034Y99720D02*
X136694Y99060D01*
X114100Y99720D02*
X136034D01*
X136694Y85555D02*
X149860Y72390D01*
X138769Y111760D02*
X156587D01*
X157480Y112653D01*
Y122080D01*
X149860Y154940D02*
X157480Y147320D01*
Y132080D02*
Y147320D01*
X53340Y131920D02*
X63420D01*
X63500Y132000D01*
X43180D02*
Y143510D01*
X53340Y153670D01*
X52840Y104060D02*
X53340D01*
X43180Y113720D02*
Y122000D01*
Y113720D02*
X52840Y104060D01*
X53340D02*
X53420Y104140D01*
X60960D01*
X65380Y99720D01*
X89100D01*
X76780Y109220D02*
X89100D01*
X64000Y122000D02*
X76780Y109220D01*
X63500Y122000D02*
X64000D01*
X98167Y99853D02*
X99060Y100746D01*
Y124460D01*
X89233Y99853D02*
X98167D01*
X89100Y99720D02*
X89233Y99853D01*
X95250Y128270D02*
X99060Y124460D01*
X89100Y30680D02*
Y99720D01*
X104140Y100613D02*
X105033Y99720D01*
X114100D01*
X107950Y128421D02*
Y140640D01*
X104140Y124611D02*
X107950Y128421D01*
X104140Y100613D02*
Y124611D01*
X95250Y128270D02*
Y140640D01*
X114100Y99720D02*
X114300Y99520D01*
Y30480D02*
Y99520D01*
X88900Y30480D02*
X89100Y30680D01*
X198120Y199580D02*
Y205740D01*
X204280Y211900D01*
Y225900D01*
X186420Y191580D02*
X198120D01*
X185420Y190580D02*
X186420Y191580D01*
X617220Y127680D02*
Y137160D01*
X87522Y358060D02*
X90760Y354822D01*
X78740Y358060D02*
X87522D01*
X90760Y353060D02*
Y354822D01*
X132760Y339680D02*
Y353060D01*
X36453Y254000D02*
X66040D01*
X35560Y253107D02*
X36453Y254000D01*
X35560Y248090D02*
X35680Y247970D01*
X35560Y248090D02*
Y253107D01*
X162480Y281940D02*
Y282440D01*
Y271780D02*
Y272280D01*
X51168Y249958D02*
X67443D01*
X50680Y249470D02*
X51168Y249958D01*
X50680Y247970D02*
Y249470D01*
X169020Y270400D02*
X185280D01*
X162480Y271780D02*
X167640D01*
X169020Y270400D01*
X162480Y281940D02*
X167640D01*
X170680Y278900D02*
X185280D01*
X167640Y281940D02*
X170680Y278900D01*
X144580Y238880D02*
X147320Y236140D01*
X134030Y238880D02*
X144580D01*
X162480Y250960D02*
Y251460D01*
X134030Y258880D02*
X146928D01*
X162400Y261120D02*
Y261620D01*
X162680Y261900D01*
X185280D01*
X162480Y251460D02*
X167640D01*
X169580Y253400D02*
X185280D01*
X167640Y251460D02*
X169580Y253400D01*
X436880Y236220D02*
X454780Y218320D01*
X505880Y256540D02*
X510460Y261120D01*
X363140Y256540D02*
X465178D01*
Y261722D01*
X363140Y246380D02*
X462940D01*
Y238960D02*
Y246380D01*
X485914D01*
X488454Y243840D01*
X462940Y263960D02*
X465178Y261722D01*
X481940Y238960D02*
X482600Y238300D01*
X510460Y218400D02*
Y236220D01*
X510460Y317000D02*
X510540Y316920D01*
X525780Y305280D02*
X535740Y295320D01*
X510460Y329700D02*
X525780Y314380D01*
Y305280D02*
Y314380D01*
X531058Y286822D02*
X537738D01*
X520187Y297693D02*
X531058Y286822D01*
X537738D02*
X540240Y284320D01*
X541020Y307100D02*
Y335280D01*
X540240Y306320D02*
X541020Y307100D01*
X510460Y342900D02*
X533400D01*
X541020Y335280D01*
X535740Y240320D02*
X540240D01*
X516678Y259382D02*
X535740Y240320D01*
X512198Y259382D02*
X516678D01*
X510460Y261120D02*
X512198Y259382D01*
X535740Y229320D02*
X540240D01*
X516140Y248920D02*
X535740Y229320D01*
X510460Y248920D02*
X516140D01*
X510540Y278971D02*
X519089D01*
X535740Y262320D01*
X540240D01*
X535740Y295320D02*
X540240D01*
X510540Y274400D02*
Y278971D01*
X510460Y274320D02*
X510540Y274400D01*
X363140Y276860D02*
X438527D01*
X426720Y297180D02*
X447040Y317500D01*
X363140Y297180D02*
X426720D01*
X447040Y317500D02*
Y347980D01*
X454660Y312420D02*
Y325120D01*
X464820Y335280D02*
X483493D01*
X454660Y325120D02*
X464820Y335280D01*
X429260Y287020D02*
X454660Y312420D01*
X363140Y287020D02*
X429260D01*
X363827Y266013D02*
X441588D01*
X363140Y266700D02*
X363827Y266013D01*
X510460Y329700D02*
Y330700D01*
X325280Y355400D02*
X350520D01*
X354274Y326334D02*
X403916D01*
X340360Y312420D02*
X354274Y326334D01*
X403916D02*
X405130Y325120D01*
X363220Y332740D02*
X368300Y337820D01*
X405130D01*
X325760Y312420D02*
X340360D01*
X325280Y312900D02*
X325760Y312420D01*
X360680Y355400D02*
X400250D01*
X405130Y350520D01*
X360680Y355400D02*
Y355680D01*
X350520Y355400D02*
Y355680D01*
Y355400D02*
X360680D01*
X417830Y325120D02*
X434340D01*
X417830Y350520D02*
X434340D01*
X417830Y337820D02*
X434340D01*
X221280Y200880D02*
Y225900D01*
X220980Y200580D02*
X221280Y200880D01*
X210820Y200660D02*
Y208280D01*
X212780Y210240D02*
Y225900D01*
X210820Y208280D02*
X212780Y210240D01*
X355600Y320040D02*
X363220D01*
X339960Y304400D02*
X355600Y320040D01*
X325280Y304400D02*
X339960D01*
X325280Y253400D02*
X333340D01*
X337820Y248920D02*
X350509D01*
X333340Y253400D02*
X337820Y248920D01*
X325280Y270400D02*
X334120D01*
X337820Y266700D02*
X353140D01*
X334120Y270400D02*
X337820Y266700D01*
X338927Y256540D02*
X353140D01*
X333567Y261900D02*
X338927Y256540D01*
X353140Y246380D02*
Y246880D01*
X350811Y248618D02*
X351402D01*
X350509Y248920D02*
X350811Y248618D01*
X351402D02*
X353140Y246880D01*
X325280Y261900D02*
X333567D01*
X325280Y278900D02*
X351402D01*
X353140Y276860D02*
Y277162D01*
X351402Y278900D02*
X353140Y277162D01*
X325280Y287400D02*
X352760D01*
X353140Y287020D01*
X325280Y295900D02*
X351860D01*
X353140Y297180D01*
X505880Y335280D02*
X510460Y330700D01*
X483493Y335280D02*
X505880D01*
X483493D02*
Y341147D01*
X462940Y317700D02*
X464820Y315820D01*
X481940Y342700D02*
X483493Y341147D01*
X462940Y342700D02*
Y360020D01*
X510460Y261120D02*
Y261620D01*
Y248420D02*
Y248920D01*
X505880Y243840D02*
X510460Y248420D01*
D94*
X325280Y225900D02*
X337461D01*
X339840Y223520D01*
X340360D01*
X515520Y292080D02*
X520640Y286960D01*
X91295Y226140D02*
X101310D01*
X81280D02*
X91295D01*
X355600Y124460D02*
X363300D01*
X447040Y195500D02*
Y203200D01*
X355600Y73660D02*
X363300D01*
X383540Y195500D02*
X396240D01*
X421960Y194860D02*
X434660D01*
X421800Y194900D02*
X421840Y194860D01*
X421640Y203200D02*
X421800Y203040D01*
X421840Y194860D02*
X421960D01*
X421800Y194900D02*
Y203040D01*
X617220Y147160D02*
Y147240D01*
X493280Y292100D02*
X498360Y287020D01*
X492760Y292100D02*
X493280D01*
X498360Y287020D02*
X500460D01*
X492760Y342900D02*
X500460D01*
X492760Y317500D02*
X500460D01*
Y330200D01*
X492760Y236220D02*
X500460D01*
X492760Y248920D02*
X500460D01*
Y261620D02*
Y274320D01*
X492760Y261620D02*
X500460D01*
X498360Y297180D02*
X500460D01*
X493280Y292100D02*
X498360Y297180D01*
X76567Y129907D02*
X82550Y135890D01*
X76567Y127367D02*
Y129907D01*
X76200Y127000D02*
X76567Y127367D01*
X82550Y135890D02*
Y140640D01*
X120650Y135890D02*
X121110Y135430D01*
X125052D02*
X128034Y132447D01*
X129173D02*
X129540Y132080D01*
X121110Y135430D02*
X125052D01*
X120650Y135890D02*
Y140640D01*
X128034Y132447D02*
X129173D01*
X129540Y132080D02*
X142240D01*
X129540Y116840D02*
Y121920D01*
X114100Y109220D02*
X121920D01*
X129540Y116840D01*
X142080Y121920D02*
X142240Y122080D01*
X129540Y121920D02*
X142080D01*
X63500Y30480D02*
Y53340D01*
X139700Y30480D02*
Y53340D01*
X231140Y136920D02*
Y137175D01*
Y129540D02*
Y136920D01*
X248920Y182880D02*
Y190580D01*
X233920Y139700D02*
X246580D01*
X231140Y136920D02*
X233920Y139700D01*
X226060Y137240D02*
X231075D01*
X231140Y137175D01*
X202540Y118880D02*
X203120Y118300D01*
X201930Y119490D02*
X202540Y118880D01*
X203120Y104140D02*
Y118300D01*
X201930Y132080D02*
X208280D01*
X195580D02*
X201930D01*
Y119490D02*
Y132080D01*
X223110Y147190D02*
X223160Y147240D01*
X212950Y147190D02*
X223110D01*
X212040Y146280D02*
X212950Y147190D01*
X212040Y144780D02*
Y146280D01*
X223160Y147240D02*
X226060D01*
X189240Y172100D02*
X191240D01*
X188987Y172353D02*
X189240Y172100D01*
X183247Y172353D02*
X188987D01*
X193700Y167640D02*
Y169640D01*
X191240Y172100D02*
X193700Y169640D01*
X182880Y172720D02*
X183247Y172353D01*
X215160Y165100D02*
X228600D01*
X212700Y167560D02*
Y167640D01*
Y167560D02*
X215160Y165100D01*
X217780Y172720D02*
X228600D01*
X212700Y169640D02*
X215160Y172100D01*
X212700Y167640D02*
Y169640D01*
X215160Y172100D02*
X217160D01*
X217780Y172720D01*
X78740Y246380D02*
X78820Y246460D01*
X81280D01*
X76720Y246380D02*
X78740D01*
X73660Y243840D02*
X74180D01*
X76720Y246380D01*
X73660Y243320D02*
Y243840D01*
X81280Y236140D02*
Y236220D01*
X73660Y243840D02*
X81280Y236220D01*
X73660Y243840D02*
Y243840D01*
X68580Y238240D02*
X73660Y243320D01*
X68580Y236140D02*
Y238240D01*
X78740Y337820D02*
Y348060D01*
X55880Y289560D02*
Y294640D01*
X53640Y296880D02*
X55880Y294640D01*
X52680Y304460D02*
X53640Y303500D01*
Y296880D02*
Y303500D01*
X68580Y269240D02*
Y279560D01*
X52760Y269320D02*
X68500D01*
X52680Y269400D02*
X52760Y269320D01*
X68500D02*
X68580Y269240D01*
X617220Y85680D02*
Y96520D01*
X594360Y137160D02*
X606980D01*
X607060Y137240D01*
X628920Y137200D02*
X628960Y137160D01*
X640080D01*
X627380Y137240D02*
X627420Y137200D01*
X628920D01*
X361220Y365720D02*
X361260Y365760D01*
X370840D01*
X360680Y365680D02*
X360720Y365720D01*
X361220D01*
X340360Y365760D02*
X350440D01*
X350520Y365680D01*
X472440Y263960D02*
Y276860D01*
Y226060D02*
Y238960D01*
Y342700D02*
Y355148D01*
Y304800D02*
Y317700D01*
X533440Y274280D02*
X539280D01*
X520700Y287020D02*
X533440Y274280D01*
X539280D02*
X540240Y273320D01*
X627380Y208280D02*
X627747Y207913D01*
X644647D02*
X646240Y206320D01*
X627747Y207913D02*
X644647D01*
X563941Y206320D02*
X565900Y208280D01*
X566420D01*
X550240Y206320D02*
X563941D01*
X556190Y251390D02*
X556260Y251460D01*
X540240Y251320D02*
X540310Y251390D01*
X556190D01*
X550980Y353060D02*
X566420D01*
X550240Y352320D02*
X550980Y353060D01*
X645160Y347980D02*
Y360240D01*
X515520Y292080D02*
Y292120D01*
X510460Y297180D02*
X515520Y292120D01*
X510460Y287020D02*
X515520Y292080D01*
D95*
X139977Y249416D02*
X143224Y246169D01*
Y246169D02*
Y246169D01*
X139977Y249416D02*
Y251143D01*
X138135Y252985D02*
X139977Y251143D01*
D96*
X134925Y252985D02*
X138135D01*
X396240Y91440D02*
X405665D01*
X388724Y96624D02*
X405849D01*
X439780Y145555D02*
Y146617D01*
X403585Y103760D02*
X405849Y101496D01*
X401969Y141591D02*
X405859D01*
X398237Y131537D02*
X405763D01*
D97*
X404787Y81280D02*
X405098Y81591D01*
X409811D01*
X412280Y84060D01*
X433272Y86560D02*
X434749Y88037D01*
X434477Y91577D02*
X434749Y91304D01*
X422280Y86560D02*
X433272D01*
X434749Y88037D02*
Y91304D01*
X439780Y138068D02*
Y145555D01*
X438241Y136529D02*
X439780Y138068D01*
X432280Y134060D02*
X434749Y136529D01*
X438241D01*
X422280Y134060D02*
X424749Y136529D01*
X428241D01*
X429811Y138099D01*
Y141591D01*
X432280Y144060D01*
X405849Y101496D02*
X405883Y101529D01*
X418303D01*
X420772Y99060D01*
X427280D01*
X427360Y93980D02*
X432280Y89060D01*
X420852Y93980D02*
X427360D01*
X418241Y96591D02*
X420852Y93980D01*
X406224Y96624D02*
X406257Y96591D01*
X418241D01*
X405849Y96624D02*
X406224D01*
X405665Y91440D02*
X405774Y91549D01*
X424791D01*
X427280Y89060D01*
X405762Y131537D02*
X409757D01*
X412280Y134060D01*
X405859Y141591D02*
X409749D01*
X412280Y139060D01*
D98*
X381000Y73660D02*
X411480D01*
X441960Y149860D02*
X447040Y154940D01*
Y177800D01*
X358681Y86360D02*
X363300D01*
X447040Y177800D02*
Y185500D01*
X373300Y73660D02*
X381000D01*
X356141Y88900D02*
X358681Y86360D01*
X355600Y88900D02*
X356141D01*
X363300Y105410D02*
Y111760D01*
Y99060D02*
Y105410D01*
X355600Y106680D02*
X355983Y106297D01*
X362413D01*
X363300Y105410D01*
X373921Y193040D02*
X376381Y195500D01*
X383540D01*
X373380Y193040D02*
X373921D01*
D99*
X302260Y129540D02*
Y137240D01*
X274583Y87943D02*
Y91191D01*
X279075Y95683D01*
Y96821D01*
X274377Y87737D02*
X274583Y87943D01*
X53380Y94020D02*
X63460D01*
X63500Y93980D01*
X53340Y94060D02*
X53380Y94020D01*
X153670Y101600D02*
X167640D01*
X149860Y97790D02*
X153670Y101600D01*
X208534Y99314D02*
X212040Y102820D01*
X197946Y99314D02*
X208534D01*
X212040Y102820D02*
Y118880D01*
X193080Y104180D02*
X193120Y104140D01*
X197946Y99314D01*
X231140Y104140D02*
X238760Y96520D01*
X223520Y119380D02*
X231140Y111760D01*
Y104140D02*
Y111760D01*
X212040Y118880D02*
X212540Y119380D01*
X223520D01*
X193040Y118880D02*
X193080Y118840D01*
Y104180D02*
Y118840D01*
X269280Y114260D02*
X276820D01*
X276860Y114300D01*
X269240Y114220D02*
X269280Y114260D01*
X244377Y87943D02*
Y91176D01*
X239033Y96520D02*
X244377Y91176D01*
X238760Y96520D02*
X239033D01*
X244377Y87943D02*
X244480Y87840D01*
X290115Y89943D02*
X291752Y91580D01*
Y96172D02*
X292100Y96520D01*
X289480Y89840D02*
X289583Y89943D01*
X289480Y87840D02*
Y89840D01*
X289583Y89943D02*
X290115D01*
X291752Y91580D02*
Y96172D01*
X229377Y82057D02*
Y89943D01*
X226865Y92455D02*
X229377Y89943D01*
X226060Y96520D02*
X226865Y95715D01*
Y92455D02*
Y95715D01*
X244583Y83077D02*
X246980Y80680D01*
X244583Y83077D02*
Y87737D01*
X246980Y74840D02*
Y80680D01*
X228480Y74840D02*
X228600Y74960D01*
Y81280D01*
X229377Y82057D01*
X244480Y87840D02*
X244583Y87737D01*
X274377Y81337D02*
Y87737D01*
X272083Y79043D02*
X274377Y81337D01*
X272083Y74943D02*
Y79043D01*
X271980Y74840D02*
X272083Y74943D01*
X289583Y83428D02*
X290480Y82531D01*
Y74840D02*
Y82531D01*
X289480Y87840D02*
X289583Y87737D01*
Y83428D02*
Y87737D01*
D100*
X241460Y104300D02*
X244762D01*
X241300Y104140D02*
X241460Y104300D01*
X244758Y95094D02*
Y95822D01*
X244257Y96323D02*
X244758Y95822D01*
Y95094D02*
X248615Y91237D01*
X244257Y100059D02*
X244419Y100221D01*
Y103957D01*
X244762Y104300D01*
X244257Y96323D02*
Y100059D01*
X244762Y104300D02*
X248920D01*
X248615Y88705D02*
Y91237D01*
Y88705D02*
X249480Y87840D01*
X268751Y68754D02*
X299546D01*
X299720Y68580D01*
X220980Y182880D02*
Y190580D01*
X210820Y182880D02*
Y190660D01*
X267845Y69660D02*
Y73975D01*
Y69660D02*
X268751Y68754D01*
X266980Y74840D02*
X267845Y73975D01*
X269320Y104140D02*
X276860D01*
X269240Y104220D02*
X269320Y104140D01*
D101*
X20320Y215900D02*
Y224470D01*
X20320Y224470D01*
X20320Y224470D02*
Y226140D01*
X20320Y224470D02*
X35680D01*
D102*
X193315Y166664D02*
X193700Y167049D01*
X191875Y165224D02*
X193315Y166664D01*
Y145055D02*
Y166664D01*
X182880Y165100D02*
X183004Y165224D01*
X193700Y167049D02*
Y167640D01*
X183004Y165224D02*
X191875D01*
X193040Y144780D02*
X193315Y145055D01*
D103*
X20320Y289400D02*
X20480Y289560D01*
X30480D01*
X68580Y299800D02*
X68660Y299720D01*
X78740D01*
X33680Y303460D02*
Y304460D01*
Y298900D02*
Y303460D01*
X39125Y293456D02*
X39625D01*
X33680Y298900D02*
X39125Y293456D01*
X39625D02*
X43180Y289900D01*
Y289400D02*
Y289900D01*
X68580Y289560D02*
Y299800D01*
X22376Y277344D02*
X26235D01*
X33680Y269900D01*
Y269400D02*
Y269900D01*
X20320Y279400D02*
X22376Y277344D01*
X30020Y299800D02*
X33680Y303460D01*
X20320Y299800D02*
X30020D01*
X68580Y309800D02*
Y317500D01*
X60620Y325460D02*
X68580Y317500D01*
X43180Y325460D02*
X60620D01*
X48260Y314960D02*
X52680Y310540D01*
Y304460D02*
Y310540D01*
X25980Y314960D02*
X48260D01*
X20820Y309800D02*
X25980Y314960D01*
X20320Y309800D02*
X20820D01*
D104*
X302680Y83740D02*
D03*
X216280D02*
D03*
D105*
X302680Y30140D02*
D03*
X216280D02*
D03*
D106*
X68080Y341000D02*
D03*
X698080D02*
D03*
X683080Y311000D02*
D03*
X698080Y281000D02*
D03*
X683080Y251000D02*
D03*
X698080Y221000D02*
D03*
X683080Y191000D02*
D03*
X698080Y161000D02*
D03*
X683080Y131000D02*
D03*
X698080Y101000D02*
D03*
X683080Y71000D02*
D03*
X698080Y41000D02*
D03*
X683080Y11000D02*
D03*
X668080Y341000D02*
D03*
Y281000D02*
D03*
X653080Y251000D02*
D03*
X668080Y221000D02*
D03*
X653080Y191000D02*
D03*
X668080Y161000D02*
D03*
X653080Y131000D02*
D03*
X668080Y101000D02*
D03*
X653080Y71000D02*
D03*
X668080Y41000D02*
D03*
X653080Y11000D02*
D03*
X638080Y341000D02*
D03*
X623080Y311000D02*
D03*
X638080Y281000D02*
D03*
X623080Y251000D02*
D03*
X638080Y221000D02*
D03*
X623080Y191000D02*
D03*
X638080Y161000D02*
D03*
Y101000D02*
D03*
X623080Y71000D02*
D03*
X638080Y41000D02*
D03*
X623080Y11000D02*
D03*
X608080Y341000D02*
D03*
X593080Y311000D02*
D03*
X608080Y281000D02*
D03*
X593080Y251000D02*
D03*
X608080Y221000D02*
D03*
X593080Y191000D02*
D03*
X608080Y161000D02*
D03*
Y101000D02*
D03*
X593080Y71000D02*
D03*
X608080Y41000D02*
D03*
X593080Y11000D02*
D03*
X578080Y341000D02*
D03*
X563080Y311000D02*
D03*
X578080Y281000D02*
D03*
Y221000D02*
D03*
Y161000D02*
D03*
X563080Y131000D02*
D03*
X578080Y101000D02*
D03*
X563080Y71000D02*
D03*
X578080Y41000D02*
D03*
X563080Y11000D02*
D03*
X533080Y191000D02*
D03*
X548080Y161000D02*
D03*
X533080Y131000D02*
D03*
X548080Y101000D02*
D03*
X533080Y71000D02*
D03*
X548080Y41000D02*
D03*
X533080Y11000D02*
D03*
X503080Y191000D02*
D03*
X518080Y161000D02*
D03*
X503080Y131000D02*
D03*
X518080Y101000D02*
D03*
X503080Y71000D02*
D03*
X518080Y41000D02*
D03*
X503080Y11000D02*
D03*
X473080Y191000D02*
D03*
X488080Y161000D02*
D03*
Y101000D02*
D03*
X473080Y71000D02*
D03*
X488080Y41000D02*
D03*
X473080Y11000D02*
D03*
X458080Y161000D02*
D03*
X443080Y71000D02*
D03*
X458080Y41000D02*
D03*
X443080Y11000D02*
D03*
X428080Y221000D02*
D03*
Y41000D02*
D03*
X413080Y11000D02*
D03*
X383080Y311000D02*
D03*
X398080Y161000D02*
D03*
X383080Y131000D02*
D03*
X398080Y41000D02*
D03*
X383080Y11000D02*
D03*
X368080Y161000D02*
D03*
Y41000D02*
D03*
X353080Y11000D02*
D03*
X338080Y161000D02*
D03*
X323080Y71000D02*
D03*
X338080Y41000D02*
D03*
X323080Y11000D02*
D03*
X293080Y311000D02*
D03*
X308080Y281000D02*
D03*
X293080Y251000D02*
D03*
X308080Y101000D02*
D03*
X293080Y11000D02*
D03*
X263080Y251000D02*
D03*
X278080Y161000D02*
D03*
Y41000D02*
D03*
X263080Y11000D02*
D03*
X233080Y251000D02*
D03*
X248080Y41000D02*
D03*
X233080Y11000D02*
D03*
X203080Y311000D02*
D03*
X218080Y281000D02*
D03*
X203080Y71000D02*
D03*
Y11000D02*
D03*
X173080Y131000D02*
D03*
Y71000D02*
D03*
X188080Y41000D02*
D03*
X173080Y11000D02*
D03*
X158080Y41000D02*
D03*
X143080Y11000D02*
D03*
X128080Y161000D02*
D03*
X113080Y11000D02*
D03*
X83080Y311000D02*
D03*
X98080Y161000D02*
D03*
X83080Y71000D02*
D03*
Y11000D02*
D03*
X68080Y161000D02*
D03*
X53080Y71000D02*
D03*
Y11000D02*
D03*
X38080Y341000D02*
D03*
X23080Y251000D02*
D03*
Y191000D02*
D03*
X38080Y161000D02*
D03*
X23080Y131000D02*
D03*
X38080Y101000D02*
D03*
X23080Y71000D02*
D03*
X38080Y41000D02*
D03*
X23080Y11000D02*
D03*
X396240Y81280D02*
D03*
X431800Y68580D02*
D03*
X441960Y114300D02*
D03*
X434340Y157480D02*
D03*
X440690Y328930D02*
D03*
X370586Y320040D02*
D03*
X355854Y332740D02*
D03*
X205486Y244348D02*
D03*
X235204Y207010D02*
D03*
X251206Y208788D02*
D03*
X115824Y211328D02*
D03*
X138684Y201422D02*
D03*
X90678Y214376D02*
D03*
X30480Y282702D02*
D03*
X163576Y289814D02*
D03*
X205740Y330200D02*
D03*
X355600Y124460D02*
D03*
X447040Y177800D02*
D03*
X381000Y73660D02*
D03*
X447040Y203200D02*
D03*
X355600Y73660D02*
D03*
Y88900D02*
D03*
Y106680D02*
D03*
X373380Y193040D02*
D03*
X421640Y203200D02*
D03*
X200660Y238760D02*
D03*
X617220Y154940D02*
D03*
X492760Y236220D02*
D03*
Y248920D02*
D03*
Y261620D02*
D03*
Y317500D02*
D03*
Y342900D02*
D03*
X86360Y208280D02*
D03*
X109220D02*
D03*
X132080Y198120D02*
D03*
X228600Y210820D02*
D03*
X238760Y213360D02*
D03*
X248920Y215900D02*
D03*
X167640Y101600D02*
D03*
X63500Y93980D02*
D03*
X144946Y251474D02*
D03*
X144780Y266700D02*
D03*
Y281940D02*
D03*
X198120Y330200D02*
D03*
X434340Y337820D02*
D03*
Y350520D02*
D03*
Y325120D02*
D03*
X363220Y320040D02*
D03*
Y332740D02*
D03*
D107*
X256540Y68580D02*
D03*
X262310D02*
D03*
X86360Y261620D02*
D03*
X270764Y97282D02*
D03*
X248412Y98044D02*
D03*
X273304Y64516D02*
D03*
X250698Y67310D02*
D03*
X299720Y68580D02*
D03*
X276860Y104140D02*
D03*
X241300D02*
D03*
X264970Y96520D02*
D03*
X254000D02*
D03*
D108*
X279400Y170180D02*
D03*
X91694Y308610D02*
D03*
X337820Y332740D02*
D03*
X340360Y223520D02*
D03*
X302260Y129540D02*
D03*
X279075Y96821D02*
D03*
X492760Y292100D02*
D03*
X132080Y218440D02*
D03*
X76200Y127000D02*
D03*
X129540Y132080D02*
D03*
Y121920D02*
D03*
X139700Y53340D02*
D03*
X63500D02*
D03*
X20320Y215900D02*
D03*
X48260D02*
D03*
X53340Y198120D02*
D03*
X175260Y200660D02*
D03*
X165100Y226060D02*
D03*
X112776Y329494D02*
D03*
X154940Y360680D02*
D03*
X167640D02*
D03*
Y335732D02*
D03*
X154940D02*
D03*
X248920Y182880D02*
D03*
X236220D02*
D03*
X231140Y129540D02*
D03*
X223520Y119380D02*
D03*
X195580Y132080D02*
D03*
X208280D02*
D03*
X182880Y172720D02*
D03*
Y165100D02*
D03*
X228600D02*
D03*
Y172720D02*
D03*
X276860Y114300D02*
D03*
X292100Y96520D02*
D03*
X238760D02*
D03*
X226060D02*
D03*
X91295Y226140D02*
D03*
X73660Y243840D02*
D03*
X78740Y337820D02*
D03*
X138430Y308356D02*
D03*
X55880Y289560D02*
D03*
X68580Y269240D02*
D03*
X617220Y96520D02*
D03*
X640080Y137160D02*
D03*
X594360D02*
D03*
X370840Y365760D02*
D03*
X472440Y226060D02*
D03*
Y276860D02*
D03*
Y355148D02*
D03*
Y304800D02*
D03*
X520700Y287020D02*
D03*
X627380Y208280D02*
D03*
X566420D02*
D03*
X556260Y251460D02*
D03*
X566420Y353060D02*
D03*
X645160Y347980D02*
D03*
D109*
X55880Y111760D02*
D03*
X220980Y182880D02*
D03*
X210820D02*
D03*
X170180Y292100D02*
D03*
Y302260D02*
D03*
X78740Y299720D02*
D03*
X30480Y289560D02*
D03*
M02*
