G04*
G04 #@! TF.GenerationSoftware,Altium Limited,Altium Designer,22.9.1 (49)*
G04*
G04 Layer_Physical_Order=6*
G04 Layer_Color=16711680*
%FSLAX44Y44*%
%MOMM*%
G71*
G04*
G04 #@! TF.SameCoordinates,E336FFB1-1865-4BEF-82AD-0346AAED6B04*
G04*
G04*
G04 #@! TF.FilePolarity,Positive*
G04*
G01*
G75*
%ADD91C,0.1710*%
%ADD97C,0.1475*%
%ADD100C,0.2794*%
%ADD101C,0.1270*%
G04:AMPARAMS|DCode=105|XSize=1.1mm|YSize=2.1mm|CornerRadius=0.55mm|HoleSize=0mm|Usage=FLASHONLY|Rotation=0.000|XOffset=0mm|YOffset=0mm|HoleType=Round|Shape=RoundedRectangle|*
%AMROUNDEDRECTD105*
21,1,1.1000,1.0000,0,0,0.0*
21,1,0.0000,2.1000,0,0,0.0*
1,1,1.1000,0.0000,-0.5000*
1,1,1.1000,0.0000,-0.5000*
1,1,1.1000,0.0000,0.5000*
1,1,1.1000,0.0000,0.5000*
%
%ADD105ROUNDEDRECTD105*%
G04:AMPARAMS|DCode=106|XSize=1.1mm|YSize=2.6mm|CornerRadius=0.55mm|HoleSize=0mm|Usage=FLASHONLY|Rotation=0.000|XOffset=0mm|YOffset=0mm|HoleType=Round|Shape=RoundedRectangle|*
%AMROUNDEDRECTD106*
21,1,1.1000,1.5000,0,0,0.0*
21,1,0.0000,2.6000,0,0,0.0*
1,1,1.1000,0.0000,-0.7500*
1,1,1.1000,0.0000,-0.7500*
1,1,1.1000,0.0000,0.7500*
1,1,1.1000,0.0000,0.7500*
%
%ADD106ROUNDEDRECTD106*%
%ADD107C,1.1520*%
%ADD108C,0.5000*%
%ADD109C,0.4500*%
%ADD110C,0.7000*%
%ADD111C,0.6000*%
D91*
X168447Y206547D02*
X170180Y208280D01*
X118291Y206547D02*
X168447D01*
X117947Y206203D02*
X118291Y206547D01*
X112458Y206203D02*
X117947D01*
X109220Y208280D02*
X110381D01*
X112458Y206203D01*
X170180Y208280D02*
X225469D01*
X136615Y212815D02*
X139700Y215900D01*
X127545Y212815D02*
X136615D01*
X122652Y217708D02*
X127545Y212815D01*
X139700Y215900D02*
X226060D01*
X109220Y217708D02*
X122652D01*
X99792Y208280D02*
X109220Y217708D01*
X86360Y208280D02*
X99792D01*
X136283Y195128D02*
X170632D01*
X179888D02*
X228148D01*
X177800Y193040D02*
X179888Y195128D01*
X172720Y193040D02*
X177800D01*
X170632Y195128D02*
X172720Y193040D01*
X228600Y218440D02*
X233680D01*
X238760Y213360D01*
X226060Y215900D02*
X228600Y218440D01*
X63500Y295092D02*
X167188D01*
X36012D02*
X48260D01*
X61412Y297180D02*
X63500Y295092D01*
X50348Y297180D02*
X61412D01*
X48260Y295092D02*
X50348Y297180D01*
X240792Y207772D02*
X248920Y215900D01*
X228148Y195128D02*
X232918Y199898D01*
X235712D01*
X240792Y204978D01*
Y207772D01*
X360680Y213360D02*
X546100D01*
X604520Y154940D01*
X617220D01*
X335280Y238760D02*
X360680Y213360D01*
X200660Y238760D02*
X335280D01*
X228009Y210820D02*
X228600D01*
X225469Y208280D02*
X228009Y210820D01*
X132080Y198120D02*
X133291D01*
X136283Y195128D01*
X208280Y340360D02*
X395063D01*
X198120Y330200D02*
X208280Y340360D01*
X167188Y295092D02*
X170180Y292100D01*
X30480Y289560D02*
X36012Y295092D01*
X78740Y299720D02*
X79681D01*
X82221Y302260D02*
X170180D01*
X79681Y299720D02*
X82221Y302260D01*
X407763Y327660D02*
X430589D01*
X433129Y325120D01*
X434340D01*
X395063Y340360D02*
X407763Y327660D01*
X363220Y320040D02*
Y332740D01*
D97*
X264273Y60890D02*
X269136Y65752D01*
X261531Y96520D02*
X264970D01*
X260492Y60890D02*
X264273D01*
X258243Y63138D02*
X260492Y60890D01*
X256540Y67906D02*
Y68580D01*
X263294Y63253D02*
X266772Y66732D01*
X269136Y65752D02*
Y77188D01*
X260667Y95656D02*
X261531Y96520D01*
X261471Y63253D02*
X263294D01*
X260667Y85658D02*
X269136Y77188D01*
X260607Y66203D02*
X262310Y67906D01*
X260607Y64117D02*
X261471Y63253D01*
X257439Y96520D02*
X258303Y95656D01*
X262310Y67906D02*
Y68580D01*
X256540Y67906D02*
X258243Y66203D01*
X260607Y64117D02*
Y66203D01*
X266772Y66732D02*
Y76209D01*
X258303Y84679D02*
X266772Y76209D01*
X258243Y63138D02*
Y66203D01*
X254000Y96520D02*
X257439D01*
X258303Y84679D02*
Y95656D01*
X260667Y85658D02*
Y95656D01*
D100*
X160020Y93980D02*
X167640Y101600D01*
X63500Y93980D02*
X160020D01*
D101*
X284480Y83820D02*
X299720Y68580D01*
X279798Y103742D02*
X284480Y99060D01*
Y83820D02*
Y99060D01*
X220980Y160020D02*
X277258Y103742D01*
X279798D01*
X210820Y158682D02*
Y182880D01*
X241300Y104140D02*
Y128202D01*
X210820Y158682D02*
X241300Y128202D01*
X220980Y160020D02*
Y182880D01*
D105*
X302680Y83740D02*
D03*
X216280D02*
D03*
D106*
X302680Y30140D02*
D03*
X216280D02*
D03*
D107*
X685800Y20320D02*
D03*
X20320Y360680D02*
D03*
D108*
X55880Y111760D02*
D03*
X220980Y182880D02*
D03*
X210820D02*
D03*
X170180Y292100D02*
D03*
Y302260D02*
D03*
X78740Y299720D02*
D03*
X30480Y289560D02*
D03*
D109*
X86360Y261620D02*
D03*
X270764Y97282D02*
D03*
X248412Y98044D02*
D03*
X273304Y64516D02*
D03*
X250698Y67310D02*
D03*
X299720Y68580D02*
D03*
X276860Y104140D02*
D03*
X241300D02*
D03*
X256540Y68580D02*
D03*
X262310D02*
D03*
X264970Y96520D02*
D03*
X254000D02*
D03*
D110*
X337820Y332740D02*
D03*
X340360Y223520D02*
D03*
X302260Y129540D02*
D03*
X279075Y96821D02*
D03*
X492760Y292100D02*
D03*
X132080Y218440D02*
D03*
X76200Y127000D02*
D03*
X129540Y132080D02*
D03*
Y121920D02*
D03*
X139700Y53340D02*
D03*
X63500D02*
D03*
X20320Y215900D02*
D03*
X48260D02*
D03*
X53340Y198120D02*
D03*
X175260Y200660D02*
D03*
X165100Y226060D02*
D03*
X114300Y284932D02*
D03*
X137160Y309880D02*
D03*
X154940Y360680D02*
D03*
X167640D02*
D03*
Y335732D02*
D03*
X154940D02*
D03*
X248920Y182880D02*
D03*
X236220D02*
D03*
X231140Y129540D02*
D03*
X223520Y119380D02*
D03*
X195580Y132080D02*
D03*
X208280D02*
D03*
X182880Y172720D02*
D03*
Y165100D02*
D03*
X228600D02*
D03*
Y172720D02*
D03*
X276860Y114300D02*
D03*
X292100Y96520D02*
D03*
X238760D02*
D03*
X226060D02*
D03*
X91295Y226140D02*
D03*
X73660Y243840D02*
D03*
X78740Y337820D02*
D03*
X88900Y309880D02*
D03*
X55880Y289560D02*
D03*
X68580Y269240D02*
D03*
X617220Y96520D02*
D03*
X640080Y137160D02*
D03*
X594360D02*
D03*
X370840Y365760D02*
D03*
X472440Y226060D02*
D03*
Y276860D02*
D03*
Y355148D02*
D03*
Y304800D02*
D03*
X520700Y287020D02*
D03*
X627380Y208280D02*
D03*
X566420D02*
D03*
X556260Y251460D02*
D03*
X566420Y353060D02*
D03*
X645160Y347980D02*
D03*
D111*
X396240Y81280D02*
D03*
X431800Y68580D02*
D03*
X441960Y114300D02*
D03*
X434340Y157480D02*
D03*
X440690Y328930D02*
D03*
X370586Y320040D02*
D03*
X355854Y332740D02*
D03*
X205486Y244348D02*
D03*
X235204Y207010D02*
D03*
X251206Y208788D02*
D03*
X115824Y211328D02*
D03*
X138684Y201422D02*
D03*
X90678Y214376D02*
D03*
X30480Y282702D02*
D03*
X163576Y289814D02*
D03*
X205740Y330200D02*
D03*
X355600Y124460D02*
D03*
X447040Y177800D02*
D03*
X381000Y73660D02*
D03*
X447040Y203200D02*
D03*
X355600Y73660D02*
D03*
Y88900D02*
D03*
Y106680D02*
D03*
X373380Y193040D02*
D03*
X421640Y203200D02*
D03*
X200660Y238760D02*
D03*
X617220Y154940D02*
D03*
X492760Y236220D02*
D03*
Y248920D02*
D03*
Y261620D02*
D03*
Y317500D02*
D03*
Y342900D02*
D03*
X86360Y208280D02*
D03*
X109220D02*
D03*
X132080Y198120D02*
D03*
X228600Y210820D02*
D03*
X238760Y213360D02*
D03*
X248920Y215900D02*
D03*
X167640Y101600D02*
D03*
X63500Y93980D02*
D03*
X144946Y251474D02*
D03*
X144780Y266700D02*
D03*
Y281940D02*
D03*
X198120Y330200D02*
D03*
X434340Y337820D02*
D03*
Y350520D02*
D03*
Y325120D02*
D03*
X363220Y320040D02*
D03*
Y332740D02*
D03*
M02*
