G04*
G04 #@! TF.GenerationSoftware,Altium Limited,Altium Designer,22.9.1 (49)*
G04*
G04 Layer_Color=8388736*
%FSLAX44Y44*%
%MOMM*%
G71*
G04*
G04 #@! TF.SameCoordinates,E336FFB1-1865-4BEF-82AD-0346AAED6B04*
G04*
G04*
G04 #@! TF.FilePolarity,Negative*
G04*
G01*
G75*
%ADD44R,2.2860X4.8260*%
%ADD45C,0.1880*%
%ADD46R,2.3500X1.3500*%
%ADD47R,1.6500X1.7500*%
%ADD48R,1.6500X1.3500*%
%ADD49R,1.7500X0.8500*%
%ADD50R,1.1500X0.8500*%
%ADD51R,0.4500X0.8500*%
%ADD52R,1.1500X1.5500*%
%ADD53R,0.9500X2.1500*%
%ADD54R,2.1500X0.9500*%
G04:AMPARAMS|DCode=55|XSize=1.65mm|YSize=3.15mm|CornerRadius=0.45mm|HoleSize=0mm|Usage=FLASHONLY|Rotation=180.000|XOffset=0mm|YOffset=0mm|HoleType=Round|Shape=RoundedRectangle|*
%AMROUNDEDRECTD55*
21,1,1.6500,2.2500,0,0,180.0*
21,1,0.7500,3.1500,0,0,180.0*
1,1,0.9000,-0.3750,1.1250*
1,1,0.9000,0.3750,1.1250*
1,1,0.9000,0.3750,-1.1250*
1,1,0.9000,-0.3750,-1.1250*
%
%ADD55ROUNDEDRECTD55*%
%ADD56C,0.9370*%
%ADD57R,0.8500X1.0500*%
%ADD58R,1.2500X0.7500*%
%ADD59R,0.7500X1.2500*%
%ADD60R,1.3500X1.3500*%
%ADD61R,0.9500X0.5500*%
%ADD62R,0.9500X0.5500*%
%ADD63R,0.5500X0.9500*%
%ADD64R,0.9500X0.9500*%
G04:AMPARAMS|DCode=65|XSize=1.7mm|YSize=0.75mm|CornerRadius=0.15mm|HoleSize=0mm|Usage=FLASHONLY|Rotation=270.000|XOffset=0mm|YOffset=0mm|HoleType=Round|Shape=RoundedRectangle|*
%AMROUNDEDRECTD65*
21,1,1.7000,0.4500,0,0,270.0*
21,1,1.4000,0.7500,0,0,270.0*
1,1,0.3000,-0.2250,-0.7000*
1,1,0.3000,-0.2250,0.7000*
1,1,0.3000,0.2250,0.7000*
1,1,0.3000,0.2250,-0.7000*
%
%ADD65ROUNDEDRECTD65*%
%ADD66R,0.7500X0.5500*%
G04:AMPARAMS|DCode=67|XSize=0.5mm|YSize=1mm|CornerRadius=0.1188mm|HoleSize=0mm|Usage=FLASHONLY|Rotation=90.000|XOffset=0mm|YOffset=0mm|HoleType=Round|Shape=RoundedRectangle|*
%AMROUNDEDRECTD67*
21,1,0.5000,0.7625,0,0,90.0*
21,1,0.2625,1.0000,0,0,90.0*
1,1,0.2375,0.3813,0.1313*
1,1,0.2375,0.3813,-0.1313*
1,1,0.2375,-0.3813,-0.1313*
1,1,0.2375,-0.3813,0.1313*
%
%ADD67ROUNDEDRECTD67*%
G04:AMPARAMS|DCode=68|XSize=0.5mm|YSize=1mm|CornerRadius=0.1188mm|HoleSize=0mm|Usage=FLASHONLY|Rotation=0.000|XOffset=0mm|YOffset=0mm|HoleType=Round|Shape=RoundedRectangle|*
%AMROUNDEDRECTD68*
21,1,0.5000,0.7625,0,0,0.0*
21,1,0.2625,1.0000,0,0,0.0*
1,1,0.2375,0.1313,-0.3813*
1,1,0.2375,-0.1313,-0.3813*
1,1,0.2375,-0.1313,0.3813*
1,1,0.2375,0.1313,0.3813*
%
%ADD68ROUNDEDRECTD68*%
%ADD69R,0.8400X1.1400*%
%ADD70R,0.9500X1.0500*%
%ADD71R,0.4000X0.7000*%
%ADD72R,0.7500X0.6500*%
%ADD73R,0.6500X0.7500*%
%ADD74R,0.6500X0.6500*%
%ADD75R,0.6500X0.6500*%
G04:AMPARAMS|DCode=76|XSize=1.25mm|YSize=2.25mm|CornerRadius=0.625mm|HoleSize=0mm|Usage=FLASHONLY|Rotation=0.000|XOffset=0mm|YOffset=0mm|HoleType=Round|Shape=RoundedRectangle|*
%AMROUNDEDRECTD76*
21,1,1.2500,1.0000,0,0,0.0*
21,1,0.0000,2.2500,0,0,0.0*
1,1,1.2500,0.0000,-0.5000*
1,1,1.2500,0.0000,-0.5000*
1,1,1.2500,0.0000,0.5000*
1,1,1.2500,0.0000,0.5000*
%
%ADD76ROUNDEDRECTD76*%
G04:AMPARAMS|DCode=77|XSize=1.25mm|YSize=2.75mm|CornerRadius=0.625mm|HoleSize=0mm|Usage=FLASHONLY|Rotation=0.000|XOffset=0mm|YOffset=0mm|HoleType=Round|Shape=RoundedRectangle|*
%AMROUNDEDRECTD77*
21,1,1.2500,1.5000,0,0,0.0*
21,1,0.0000,2.7500,0,0,0.0*
1,1,1.2500,0.0000,-0.7500*
1,1,1.2500,0.0000,-0.7500*
1,1,1.2500,0.0000,0.7500*
1,1,1.2500,0.0000,0.7500*
%
%ADD77ROUNDEDRECTD77*%
%ADD78C,1.3020*%
G36*
X118092Y293013D02*
X118105Y293014D01*
X118150Y293008D01*
X118197Y293005D01*
X118210Y293002D01*
X118222Y293000D01*
X118266Y292988D01*
X118312Y292977D01*
X118324Y292972D01*
X118336Y292969D01*
X118378Y292950D01*
X118421Y292932D01*
X118432Y292925D01*
X118443Y292920D01*
X118482Y292894D01*
X118521Y292870D01*
X118531Y292862D01*
X118542Y292855D01*
X118576Y292824D01*
X118611Y292794D01*
X119622Y291783D01*
X119699Y291693D01*
X119760Y291592D01*
X119774Y291560D01*
X119805Y291483D01*
X119833Y291369D01*
X119842Y291251D01*
Y288740D01*
X119833Y288622D01*
X119805Y288507D01*
X119760Y288398D01*
X119699Y288298D01*
X119622Y288208D01*
X119532Y288131D01*
X119432Y288070D01*
X119323Y288025D01*
X119208Y287997D01*
X119090Y287988D01*
X106090D01*
X105972Y287997D01*
X105857Y288025D01*
X105748Y288070D01*
X105648Y288131D01*
X105558Y288208D01*
X105481Y288298D01*
X105420Y288398D01*
X105374Y288507D01*
X105347Y288622D01*
X105338Y288740D01*
Y291257D01*
X105342Y291313D01*
X105346Y291369D01*
X105347Y291372D01*
X105347Y291375D01*
X105360Y291428D01*
X105373Y291484D01*
X105374Y291487D01*
X105374Y291490D01*
X105396Y291542D01*
X105417Y291593D01*
X105418Y291596D01*
X105420Y291599D01*
X105450Y291648D01*
X105478Y291695D01*
X105480Y291697D01*
X105481Y291700D01*
X105519Y291743D01*
X105554Y291785D01*
X106521Y292768D01*
X106523Y292770D01*
X106525Y292772D01*
X106568Y292808D01*
X106610Y292845D01*
X106613Y292847D01*
X106615Y292849D01*
X106664Y292879D01*
X106710Y292908D01*
X106713Y292909D01*
X106716Y292910D01*
X106767Y292932D01*
X106819Y292954D01*
X106822Y292954D01*
X106825Y292955D01*
X106877Y292968D01*
X106933Y292982D01*
X106937Y292982D01*
X106939Y292983D01*
X106995Y292987D01*
X107051Y292992D01*
X107054Y292992D01*
X107057Y292992D01*
X117908D01*
X117916Y292994D01*
X117961Y293005D01*
X117975Y293006D01*
X117987Y293008D01*
X118032Y293010D01*
X118079Y293014D01*
X118092Y293013D01*
D02*
G37*
G36*
X48313Y241968D02*
X48367Y241965D01*
X48372Y241964D01*
X48378Y241963D01*
X48428Y241951D01*
X48482Y241939D01*
X48487Y241937D01*
X48492Y241936D01*
X48542Y241915D01*
X48592Y241895D01*
X48596Y241893D01*
X48602Y241890D01*
X48648Y241862D01*
X48693Y241835D01*
X48698Y241831D01*
X48702Y241829D01*
X48743Y241793D01*
X48784Y241760D01*
X51392Y239226D01*
X51413Y239221D01*
X51522Y239176D01*
X51622Y239115D01*
X51712Y239038D01*
X51789Y238948D01*
X51850Y238848D01*
X51895Y238738D01*
X51923Y238624D01*
X51932Y238506D01*
Y231220D01*
X51923Y231102D01*
X51895Y230987D01*
X51850Y230878D01*
X51789Y230778D01*
X51712Y230688D01*
X51622Y230611D01*
X51522Y230550D01*
X51413Y230504D01*
X51298Y230477D01*
X51180Y230468D01*
X35180D01*
X35062Y230477D01*
X34948Y230504D01*
X34838Y230550D01*
X34738Y230611D01*
X34648Y230688D01*
X34571Y230778D01*
X34510Y230878D01*
X34464Y230987D01*
X34437Y231102D01*
X34428Y231220D01*
Y241220D01*
X34437Y241338D01*
X34464Y241453D01*
X34510Y241562D01*
X34571Y241662D01*
X34648Y241752D01*
X34738Y241829D01*
X34838Y241890D01*
X34948Y241936D01*
X35062Y241963D01*
X35180Y241972D01*
X48260D01*
X48313Y241968D01*
D02*
G37*
G36*
X159978Y191083D02*
X160093Y191056D01*
X160202Y191010D01*
X160302Y190949D01*
X160392Y190872D01*
X160469Y190782D01*
X160530Y190682D01*
X160576Y190572D01*
X160603Y190458D01*
X160612Y190340D01*
Y170340D01*
X160603Y170222D01*
X160576Y170107D01*
X160557Y170062D01*
X160530Y169998D01*
X160469Y169898D01*
X160392Y169808D01*
X160302Y169731D01*
X160202Y169670D01*
X160138Y169643D01*
X160093Y169625D01*
X159978Y169597D01*
X159860Y169588D01*
X159742Y169597D01*
X159628Y169625D01*
X159573Y169647D01*
X159518Y169670D01*
X159418Y169731D01*
X159328Y169808D01*
X149860Y179276D01*
X140392Y169808D01*
X140302Y169731D01*
X140202Y169670D01*
X140170Y169656D01*
X140092Y169625D01*
X139978Y169597D01*
X139860Y169588D01*
X139742Y169597D01*
X139628Y169625D01*
X139550Y169656D01*
X139518Y169670D01*
X139418Y169731D01*
X139328Y169808D01*
X139251Y169898D01*
X139190Y169998D01*
X139176Y170030D01*
X139144Y170107D01*
X139117Y170222D01*
X139108Y170340D01*
Y190340D01*
X139117Y190458D01*
X139144Y190572D01*
X139190Y190682D01*
X139251Y190782D01*
X139328Y190872D01*
X139418Y190949D01*
X139518Y191010D01*
X139628Y191056D01*
X139742Y191083D01*
X139860Y191092D01*
X159860D01*
X159978Y191083D01*
D02*
G37*
G36*
X63458Y189813D02*
X63573Y189785D01*
X63682Y189740D01*
X63782Y189679D01*
X63872Y189602D01*
X63949Y189512D01*
X64010Y189412D01*
X64056Y189303D01*
X64083Y189188D01*
X64092Y189070D01*
Y169070D01*
X64083Y168952D01*
X64056Y168838D01*
X64037Y168792D01*
X64010Y168728D01*
X63949Y168628D01*
X63872Y168538D01*
X63782Y168461D01*
X63682Y168400D01*
X63618Y168373D01*
X63573Y168354D01*
X63458Y168327D01*
X63340Y168318D01*
X63222Y168327D01*
X63108Y168354D01*
X63053Y168377D01*
X62998Y168400D01*
X62898Y168461D01*
X62808Y168538D01*
X53340Y178006D01*
X43872Y168538D01*
X43782Y168461D01*
X43682Y168400D01*
X43650Y168386D01*
X43573Y168354D01*
X43458Y168327D01*
X43340Y168318D01*
X43222Y168327D01*
X43108Y168354D01*
X43030Y168386D01*
X42998Y168400D01*
X42898Y168461D01*
X42808Y168538D01*
X42731Y168628D01*
X42670Y168728D01*
X42656Y168760D01*
X42625Y168838D01*
X42597Y168952D01*
X42588Y169070D01*
Y189070D01*
X42597Y189188D01*
X42625Y189303D01*
X42670Y189412D01*
X42731Y189512D01*
X42808Y189602D01*
X42898Y189679D01*
X42998Y189740D01*
X43108Y189785D01*
X43222Y189813D01*
X43340Y189822D01*
X63340D01*
X63458Y189813D01*
D02*
G37*
G36*
X149866Y176012D02*
X149872Y176012D01*
X149926Y176007D01*
X149978Y176003D01*
X149983Y176002D01*
X149989Y176001D01*
X150041Y175988D01*
X150092Y175975D01*
X150098Y175973D01*
X150104Y175972D01*
X150153Y175950D01*
X150202Y175930D01*
X150206Y175927D01*
X150212Y175925D01*
X150258Y175896D01*
X150302Y175869D01*
X150307Y175865D01*
X150312Y175862D01*
X150352Y175826D01*
X150392Y175792D01*
X150396Y175787D01*
X150400Y175784D01*
X160400Y165464D01*
X160434Y165423D01*
X160469Y165382D01*
X160472Y165377D01*
X160476Y165373D01*
X160502Y165328D01*
X160530Y165282D01*
X160533Y165276D01*
X160536Y165271D01*
X160555Y165221D01*
X160576Y165173D01*
X160577Y165167D01*
X160579Y165161D01*
X160591Y165108D01*
X160603Y165058D01*
X160604Y165052D01*
X160605Y165046D01*
X160608Y164992D01*
X160612Y164940D01*
Y144940D01*
X160603Y144822D01*
X160576Y144707D01*
X160530Y144598D01*
X160469Y144498D01*
X160392Y144408D01*
X160302Y144331D01*
X160202Y144270D01*
X160093Y144225D01*
X159978Y144197D01*
X159860Y144188D01*
X139860D01*
X139742Y144197D01*
X139628Y144225D01*
X139518Y144270D01*
X139418Y144331D01*
X139328Y144408D01*
X139251Y144498D01*
X139190Y144598D01*
X139144Y144707D01*
X139117Y144822D01*
X139108Y144940D01*
Y165260D01*
X139117Y165378D01*
X139144Y165492D01*
X139176Y165570D01*
X139190Y165602D01*
X139251Y165702D01*
X139328Y165792D01*
X149328Y175792D01*
X149333Y175796D01*
X149337Y175800D01*
X149377Y175834D01*
X149418Y175869D01*
X149423Y175872D01*
X149427Y175875D01*
X149473Y175902D01*
X149518Y175930D01*
X149524Y175933D01*
X149529Y175936D01*
X149578Y175955D01*
X149628Y175975D01*
X149633Y175977D01*
X149639Y175979D01*
X149691Y175991D01*
X149742Y176003D01*
X149748Y176003D01*
X149754Y176005D01*
X149808Y176008D01*
X149860Y176012D01*
X149866Y176012D01*
D02*
G37*
G36*
X53346Y174742D02*
X53352Y174742D01*
X53406Y174737D01*
X53458Y174733D01*
X53463Y174732D01*
X53469Y174731D01*
X53521Y174718D01*
X53573Y174706D01*
X53578Y174703D01*
X53584Y174702D01*
X53633Y174680D01*
X53682Y174660D01*
X53686Y174657D01*
X53692Y174655D01*
X53738Y174626D01*
X53782Y174599D01*
X53787Y174595D01*
X53792Y174592D01*
X53832Y174557D01*
X53872Y174522D01*
X53876Y174517D01*
X53880Y174513D01*
X63880Y164193D01*
X63914Y164153D01*
X63949Y164112D01*
X63952Y164107D01*
X63955Y164103D01*
X63982Y164058D01*
X64010Y164012D01*
X64013Y164006D01*
X64016Y164001D01*
X64035Y163951D01*
X64056Y163902D01*
X64057Y163897D01*
X64059Y163891D01*
X64071Y163838D01*
X64083Y163788D01*
X64083Y163782D01*
X64085Y163776D01*
X64088Y163722D01*
X64092Y163670D01*
Y143670D01*
X64083Y143552D01*
X64056Y143438D01*
X64010Y143328D01*
X63949Y143228D01*
X63872Y143138D01*
X63782Y143061D01*
X63682Y143000D01*
X63573Y142955D01*
X63458Y142927D01*
X63340Y142918D01*
X43340D01*
X43222Y142927D01*
X43108Y142955D01*
X42998Y143000D01*
X42898Y143061D01*
X42808Y143138D01*
X42731Y143228D01*
X42670Y143328D01*
X42625Y143438D01*
X42597Y143552D01*
X42588Y143670D01*
Y163990D01*
X42597Y164108D01*
X42625Y164223D01*
X42656Y164300D01*
X42670Y164331D01*
X42731Y164432D01*
X42808Y164522D01*
X52808Y174522D01*
X52813Y174526D01*
X52817Y174530D01*
X52857Y174564D01*
X52898Y174599D01*
X52903Y174602D01*
X52907Y174606D01*
X52953Y174632D01*
X52998Y174660D01*
X53004Y174663D01*
X53009Y174666D01*
X53058Y174685D01*
X53108Y174706D01*
X53113Y174707D01*
X53119Y174709D01*
X53171Y174721D01*
X53222Y174733D01*
X53228Y174734D01*
X53234Y174735D01*
X53288Y174738D01*
X53340Y174742D01*
X53346Y174742D01*
D02*
G37*
G36*
X159978Y108533D02*
X160093Y108505D01*
X160202Y108460D01*
X160302Y108399D01*
X160392Y108322D01*
X160469Y108232D01*
X160530Y108132D01*
X160576Y108022D01*
X160603Y107908D01*
X160612Y107790D01*
Y87790D01*
X160603Y87672D01*
X160576Y87557D01*
X160557Y87512D01*
X160530Y87448D01*
X160469Y87348D01*
X160392Y87258D01*
X160302Y87181D01*
X160202Y87120D01*
X160138Y87093D01*
X160093Y87074D01*
X159978Y87047D01*
X159860Y87038D01*
X159742Y87047D01*
X159628Y87074D01*
X159573Y87097D01*
X159518Y87120D01*
X159418Y87181D01*
X159328Y87258D01*
X149860Y96726D01*
X140392Y87258D01*
X140302Y87181D01*
X140202Y87120D01*
X140170Y87106D01*
X140092Y87074D01*
X139978Y87047D01*
X139860Y87038D01*
X139742Y87047D01*
X139628Y87074D01*
X139550Y87106D01*
X139518Y87120D01*
X139418Y87181D01*
X139328Y87258D01*
X139251Y87348D01*
X139190Y87448D01*
X139176Y87480D01*
X139144Y87557D01*
X139117Y87672D01*
X139108Y87790D01*
Y107790D01*
X139117Y107908D01*
X139144Y108022D01*
X139190Y108132D01*
X139251Y108232D01*
X139328Y108322D01*
X139418Y108399D01*
X139518Y108460D01*
X139628Y108505D01*
X139742Y108533D01*
X139860Y108542D01*
X159860D01*
X159978Y108533D01*
D02*
G37*
G36*
X149866Y93462D02*
X149872Y93462D01*
X149926Y93457D01*
X149978Y93453D01*
X149983Y93452D01*
X149989Y93451D01*
X150041Y93438D01*
X150092Y93426D01*
X150098Y93423D01*
X150104Y93422D01*
X150153Y93400D01*
X150202Y93380D01*
X150206Y93377D01*
X150212Y93375D01*
X150258Y93346D01*
X150302Y93319D01*
X150307Y93315D01*
X150312Y93312D01*
X150352Y93277D01*
X150392Y93242D01*
X150396Y93237D01*
X150400Y93233D01*
X160400Y82914D01*
X160434Y82873D01*
X160469Y82832D01*
X160472Y82827D01*
X160476Y82823D01*
X160502Y82778D01*
X160530Y82732D01*
X160533Y82726D01*
X160536Y82721D01*
X160555Y82671D01*
X160576Y82622D01*
X160577Y82617D01*
X160579Y82611D01*
X160591Y82558D01*
X160603Y82508D01*
X160604Y82502D01*
X160605Y82496D01*
X160608Y82442D01*
X160612Y82390D01*
Y62390D01*
X160603Y62272D01*
X160576Y62158D01*
X160530Y62048D01*
X160469Y61948D01*
X160392Y61858D01*
X160302Y61781D01*
X160202Y61720D01*
X160093Y61674D01*
X159978Y61647D01*
X159860Y61638D01*
X139860D01*
X139742Y61647D01*
X139628Y61674D01*
X139518Y61720D01*
X139418Y61781D01*
X139328Y61858D01*
X139251Y61948D01*
X139190Y62048D01*
X139144Y62158D01*
X139117Y62272D01*
X139108Y62390D01*
Y82710D01*
X139117Y82828D01*
X139144Y82942D01*
X139176Y83020D01*
X139190Y83052D01*
X139251Y83152D01*
X139328Y83242D01*
X149328Y93242D01*
X149333Y93246D01*
X149337Y93250D01*
X149377Y93284D01*
X149418Y93319D01*
X149423Y93322D01*
X149427Y93326D01*
X149473Y93352D01*
X149518Y93380D01*
X149524Y93383D01*
X149529Y93386D01*
X149578Y93405D01*
X149628Y93426D01*
X149633Y93427D01*
X149639Y93429D01*
X149691Y93441D01*
X149742Y93453D01*
X149748Y93454D01*
X149754Y93455D01*
X149808Y93458D01*
X149860Y93462D01*
X149866Y93462D01*
D02*
G37*
G36*
X119208Y327483D02*
X119323Y327455D01*
X119432Y327410D01*
X119532Y327349D01*
X119622Y327272D01*
X119699Y327182D01*
X119760Y327082D01*
X119805Y326973D01*
X119833Y326858D01*
X119842Y326740D01*
Y324229D01*
X119833Y324112D01*
X119805Y323997D01*
X119774Y323920D01*
X119760Y323888D01*
X119699Y323787D01*
X119622Y323697D01*
X118611Y322686D01*
X118576Y322656D01*
X118542Y322625D01*
X118531Y322618D01*
X118521Y322610D01*
X118482Y322585D01*
X118443Y322560D01*
X118432Y322555D01*
X118421Y322548D01*
X118378Y322530D01*
X118336Y322511D01*
X118324Y322508D01*
X118312Y322503D01*
X118266Y322492D01*
X118222Y322480D01*
X118210Y322478D01*
X118197Y322475D01*
X118150Y322472D01*
X118105Y322466D01*
X118092Y322467D01*
X118079Y322466D01*
X118032Y322470D01*
X117987Y322472D01*
X117975Y322474D01*
X117961Y322475D01*
X117916Y322486D01*
X117908Y322488D01*
X107057D01*
X107054Y322488D01*
X107051Y322488D01*
X106995Y322492D01*
X106939Y322497D01*
X106937Y322498D01*
X106933Y322498D01*
X106877Y322512D01*
X106825Y322524D01*
X106822Y322526D01*
X106819Y322526D01*
X106767Y322548D01*
X106716Y322570D01*
X106713Y322571D01*
X106710Y322572D01*
X106664Y322601D01*
X106615Y322631D01*
X106613Y322633D01*
X106610Y322635D01*
X106568Y322672D01*
X106525Y322708D01*
X106523Y322710D01*
X106521Y322712D01*
X105554Y323695D01*
X105519Y323737D01*
X105481Y323781D01*
X105480Y323783D01*
X105478Y323785D01*
X105450Y323832D01*
X105420Y323881D01*
X105418Y323884D01*
X105417Y323887D01*
X105396Y323938D01*
X105374Y323990D01*
X105374Y323993D01*
X105373Y323996D01*
X105360Y324052D01*
X105347Y324105D01*
X105347Y324108D01*
X105346Y324111D01*
X105342Y324166D01*
X105338Y324223D01*
Y326740D01*
X105347Y326858D01*
X105374Y326973D01*
X105420Y327082D01*
X105481Y327182D01*
X105558Y327272D01*
X105648Y327349D01*
X105748Y327410D01*
X105857Y327455D01*
X105972Y327483D01*
X106090Y327492D01*
X119090D01*
X119208Y327483D01*
D02*
G37*
G36*
Y319983D02*
X119323Y319956D01*
X119432Y319910D01*
X119532Y319849D01*
X119622Y319772D01*
X119699Y319682D01*
X119760Y319582D01*
X119805Y319473D01*
X119833Y319358D01*
X119842Y319240D01*
Y309740D01*
X119833Y309622D01*
X119805Y309508D01*
X119760Y309398D01*
X119699Y309298D01*
X119622Y309208D01*
X119532Y309131D01*
X119432Y309070D01*
X119323Y309025D01*
X119208Y308997D01*
X119090Y308988D01*
X114590D01*
X114472Y308997D01*
X114358Y309025D01*
X114248Y309070D01*
X114148Y309131D01*
X114058Y309208D01*
X113981Y309298D01*
X113920Y309398D01*
X113875Y309508D01*
X113847Y309622D01*
X113838Y309740D01*
Y319240D01*
X113847Y319358D01*
X113875Y319473D01*
X113920Y319582D01*
X113981Y319682D01*
X114058Y319772D01*
X114148Y319849D01*
X114248Y319910D01*
X114358Y319956D01*
X114472Y319983D01*
X114590Y319992D01*
X119090D01*
X119208Y319983D01*
D02*
G37*
G36*
X110708D02*
X110822Y319956D01*
X110932Y319910D01*
X111032Y319849D01*
X111122Y319772D01*
X111199Y319682D01*
X111260Y319582D01*
X111306Y319473D01*
X111333Y319358D01*
X111342Y319240D01*
Y309740D01*
X111333Y309622D01*
X111306Y309508D01*
X111260Y309398D01*
X111199Y309298D01*
X111122Y309208D01*
X111032Y309131D01*
X110932Y309070D01*
X110822Y309025D01*
X110708Y308997D01*
X110590Y308988D01*
X106090D01*
X105972Y308997D01*
X105857Y309025D01*
X105748Y309070D01*
X105648Y309131D01*
X105558Y309208D01*
X105481Y309298D01*
X105420Y309398D01*
X105374Y309508D01*
X105347Y309622D01*
X105338Y309740D01*
Y319240D01*
X105347Y319358D01*
X105374Y319473D01*
X105420Y319582D01*
X105481Y319682D01*
X105558Y319772D01*
X105648Y319849D01*
X105748Y319910D01*
X105857Y319956D01*
X105972Y319983D01*
X106090Y319992D01*
X110590D01*
X110708Y319983D01*
D02*
G37*
G36*
X244898Y319143D02*
X245012Y319116D01*
X245122Y319070D01*
X245222Y319009D01*
X245312Y318932D01*
X245389Y318842D01*
X245450Y318742D01*
X245495Y318633D01*
X245523Y318518D01*
X245532Y318400D01*
Y306400D01*
X245523Y306282D01*
X245495Y306168D01*
X245450Y306058D01*
X245389Y305958D01*
X245312Y305868D01*
X245222Y305791D01*
X245122Y305730D01*
X245012Y305685D01*
X244898Y305657D01*
X244780Y305648D01*
X232780D01*
X232662Y305657D01*
X232547Y305685D01*
X232438Y305730D01*
X232338Y305791D01*
X232248Y305868D01*
X232171Y305958D01*
X232110Y306058D01*
X232064Y306168D01*
X232037Y306282D01*
X232028Y306400D01*
Y312410D01*
X232037Y312528D01*
X232064Y312642D01*
X232096Y312720D01*
X232110Y312752D01*
X232171Y312852D01*
X232248Y312942D01*
X238238Y318932D01*
X238328Y319009D01*
X238428Y319070D01*
X238460Y319084D01*
X238538Y319116D01*
X238652Y319143D01*
X238770Y319152D01*
X244780D01*
X244898Y319143D01*
D02*
G37*
G36*
X126708Y319983D02*
X126823Y319956D01*
X126931Y319910D01*
X127032Y319849D01*
X127122Y319772D01*
X127199Y319682D01*
X127260Y319582D01*
X127305Y319473D01*
X127333Y319358D01*
X127342Y319240D01*
Y296240D01*
X127333Y296122D01*
X127305Y296007D01*
X127260Y295898D01*
X127199Y295798D01*
X127122Y295708D01*
X127032Y295631D01*
X126931Y295570D01*
X126823Y295525D01*
X126708Y295497D01*
X126590Y295488D01*
X124106D01*
X123988Y295497D01*
X123873Y295525D01*
X123796Y295556D01*
X123764Y295570D01*
X123664Y295631D01*
X123574Y295708D01*
X122638Y296644D01*
X122558Y296712D01*
X122481Y296802D01*
X122420Y296903D01*
X122374Y297012D01*
X122347Y297127D01*
X122338Y297244D01*
Y318206D01*
X122338Y318208D01*
X122338Y318210D01*
X122343Y318269D01*
X122347Y318324D01*
X122347Y318326D01*
X122347Y318327D01*
X122362Y318387D01*
X122374Y318439D01*
X122375Y318440D01*
X122375Y318442D01*
X122398Y318495D01*
X122420Y318548D01*
X122421Y318549D01*
X122421Y318551D01*
X122449Y318595D01*
X122481Y318648D01*
X122483Y318650D01*
X122483Y318651D01*
X122519Y318692D01*
X122558Y318738D01*
X122559Y318739D01*
X122560Y318741D01*
X123479Y319652D01*
X123498Y319682D01*
X123575Y319772D01*
X123664Y319849D01*
X123765Y319910D01*
X123874Y319956D01*
X123989Y319983D01*
X124107Y319992D01*
X126590D01*
X126708Y319983D01*
D02*
G37*
G36*
X119208Y306483D02*
X119323Y306455D01*
X119432Y306410D01*
X119532Y306349D01*
X119622Y306272D01*
X119699Y306182D01*
X119760Y306082D01*
X119805Y305972D01*
X119833Y305858D01*
X119842Y305740D01*
Y296240D01*
X119833Y296122D01*
X119805Y296007D01*
X119760Y295898D01*
X119699Y295798D01*
X119622Y295708D01*
X119532Y295631D01*
X119432Y295570D01*
X119323Y295525D01*
X119208Y295497D01*
X119090Y295488D01*
X114590D01*
X114472Y295497D01*
X114358Y295525D01*
X114248Y295570D01*
X114148Y295631D01*
X114058Y295708D01*
X113981Y295798D01*
X113920Y295898D01*
X113875Y296007D01*
X113847Y296122D01*
X113838Y296240D01*
Y305740D01*
X113847Y305858D01*
X113875Y305972D01*
X113920Y306082D01*
X113981Y306182D01*
X114058Y306272D01*
X114148Y306349D01*
X114248Y306410D01*
X114358Y306455D01*
X114472Y306483D01*
X114590Y306492D01*
X119090D01*
X119208Y306483D01*
D02*
G37*
G36*
X110708D02*
X110822Y306455D01*
X110932Y306410D01*
X111032Y306349D01*
X111122Y306272D01*
X111199Y306182D01*
X111260Y306082D01*
X111306Y305972D01*
X111333Y305858D01*
X111342Y305740D01*
Y296240D01*
X111333Y296122D01*
X111306Y296007D01*
X111260Y295898D01*
X111199Y295798D01*
X111122Y295708D01*
X111032Y295631D01*
X110932Y295570D01*
X110822Y295525D01*
X110708Y295497D01*
X110590Y295488D01*
X107510D01*
X107501Y295488D01*
X107492Y295488D01*
X107442Y295493D01*
X107392Y295497D01*
X107383Y295499D01*
X107374Y295500D01*
X107326Y295513D01*
X107277Y295525D01*
X107269Y295528D01*
X107260Y295530D01*
X107215Y295550D01*
X107168Y295570D01*
X107161Y295574D01*
X107152Y295578D01*
X107111Y295605D01*
X107068Y295631D01*
X107061Y295637D01*
X107053Y295642D01*
X107016Y295675D01*
X106978Y295708D01*
X106972Y295715D01*
X106965Y295721D01*
X105545Y297211D01*
X105514Y297249D01*
X105481Y297288D01*
X105477Y297296D01*
X105471Y297303D01*
X105446Y297345D01*
X105420Y297388D01*
X105416Y297397D01*
X105412Y297405D01*
X105394Y297451D01*
X105374Y297498D01*
X105372Y297506D01*
X105369Y297515D01*
X105358Y297564D01*
X105347Y297612D01*
X105346Y297621D01*
X105344Y297630D01*
X105342Y297680D01*
X105338Y297730D01*
Y305740D01*
X105347Y305858D01*
X105374Y305972D01*
X105420Y306082D01*
X105481Y306182D01*
X105558Y306272D01*
X105648Y306349D01*
X105748Y306410D01*
X105857Y306455D01*
X105972Y306483D01*
X106090Y306492D01*
X110590D01*
X110708Y306483D01*
D02*
G37*
G36*
X101191Y319983D02*
X101306Y319956D01*
X101415Y319910D01*
X101516Y319849D01*
X101605Y319772D01*
X101682Y319682D01*
X101701Y319652D01*
X102620Y318741D01*
X102621Y318739D01*
X102622Y318738D01*
X102661Y318692D01*
X102697Y318651D01*
X102697Y318650D01*
X102699Y318648D01*
X102731Y318595D01*
X102759Y318551D01*
X102759Y318549D01*
X102760Y318548D01*
X102782Y318495D01*
X102804Y318442D01*
X102805Y318440D01*
X102806Y318439D01*
X102818Y318387D01*
X102833Y318327D01*
X102833Y318326D01*
X102833Y318324D01*
X102837Y318269D01*
X102842Y318210D01*
X102842Y318208D01*
X102842Y318206D01*
Y297244D01*
X102833Y297127D01*
X102806Y297012D01*
X102760Y296903D01*
X102699Y296802D01*
X102622Y296712D01*
X102542Y296644D01*
X101606Y295708D01*
X101516Y295631D01*
X101416Y295570D01*
X101384Y295556D01*
X101307Y295525D01*
X101192Y295497D01*
X101074Y295488D01*
X98590D01*
X98472Y295497D01*
X98357Y295525D01*
X98248Y295570D01*
X98148Y295631D01*
X98058Y295708D01*
X97981Y295798D01*
X97920Y295898D01*
X97874Y296007D01*
X97847Y296122D01*
X97838Y296240D01*
Y319240D01*
X97847Y319358D01*
X97874Y319473D01*
X97920Y319582D01*
X97981Y319682D01*
X98058Y319772D01*
X98148Y319849D01*
X98248Y319910D01*
X98357Y319956D01*
X98472Y319983D01*
X98590Y319992D01*
X101073D01*
X101191Y319983D01*
D02*
G37*
D44*
X53340Y166370D02*
D03*
X149860Y85090D02*
D03*
Y167640D02*
D03*
D45*
X407280Y139060D02*
D03*
Y144060D02*
D03*
X412280Y139060D02*
D03*
Y144060D02*
D03*
X407280Y79060D02*
D03*
Y84060D02*
D03*
Y89060D02*
D03*
Y94060D02*
D03*
Y99060D02*
D03*
X412280Y79060D02*
D03*
Y84060D02*
D03*
Y89060D02*
D03*
Y94060D02*
D03*
Y99060D02*
D03*
Y104060D02*
D03*
X417280Y79060D02*
D03*
Y84060D02*
D03*
Y89060D02*
D03*
Y94060D02*
D03*
Y99060D02*
D03*
X422280Y79060D02*
D03*
Y84060D02*
D03*
Y89060D02*
D03*
X427280Y79060D02*
D03*
Y84060D02*
D03*
Y89060D02*
D03*
Y99060D02*
D03*
X432280Y79060D02*
D03*
Y84060D02*
D03*
Y89060D02*
D03*
Y99060D02*
D03*
X437280Y79060D02*
D03*
Y84060D02*
D03*
Y89060D02*
D03*
Y99060D02*
D03*
X442280D02*
D03*
X407280Y104060D02*
D03*
Y109060D02*
D03*
Y114060D02*
D03*
Y134060D02*
D03*
Y124060D02*
D03*
Y129060D02*
D03*
Y119060D02*
D03*
X412280Y129060D02*
D03*
Y109060D02*
D03*
Y119060D02*
D03*
Y134060D02*
D03*
Y114060D02*
D03*
X417280Y104060D02*
D03*
X427280D02*
D03*
X417280Y109060D02*
D03*
X427280D02*
D03*
X417280Y114060D02*
D03*
X427280D02*
D03*
X417280Y119060D02*
D03*
X427280D02*
D03*
X412280Y124060D02*
D03*
X417280D02*
D03*
X427280D02*
D03*
X432280D02*
D03*
X437280D02*
D03*
X417280Y134060D02*
D03*
Y129060D02*
D03*
X422280Y129060D02*
D03*
X432280Y134060D02*
D03*
X427280D02*
D03*
X442280D02*
D03*
X437280D02*
D03*
X422280D02*
D03*
X417280Y139060D02*
D03*
X422280D02*
D03*
X432280D02*
D03*
X427280D02*
D03*
X437280D02*
D03*
X417280Y144060D02*
D03*
X432280D02*
D03*
X427280D02*
D03*
X442280D02*
D03*
X422280D02*
D03*
X437280D02*
D03*
X442280Y84060D02*
D03*
Y89060D02*
D03*
Y79060D02*
D03*
X447280Y84060D02*
D03*
Y89060D02*
D03*
Y79060D02*
D03*
Y99060D02*
D03*
X452280Y84060D02*
D03*
Y89060D02*
D03*
Y79060D02*
D03*
Y99060D02*
D03*
Y104060D02*
D03*
X457280Y89060D02*
D03*
Y84060D02*
D03*
Y79060D02*
D03*
X462280Y84060D02*
D03*
Y94060D02*
D03*
Y89060D02*
D03*
Y79060D02*
D03*
Y99060D02*
D03*
Y104060D02*
D03*
X467280Y84060D02*
D03*
Y89060D02*
D03*
Y94060D02*
D03*
Y79060D02*
D03*
Y99060D02*
D03*
Y104060D02*
D03*
X472280Y84060D02*
D03*
Y79060D02*
D03*
Y89060D02*
D03*
Y94060D02*
D03*
Y99060D02*
D03*
X442280Y124060D02*
D03*
Y139060D02*
D03*
X447280Y124060D02*
D03*
Y134060D02*
D03*
Y139060D02*
D03*
Y144060D02*
D03*
X452280Y109060D02*
D03*
Y114060D02*
D03*
Y119060D02*
D03*
Y124060D02*
D03*
Y139060D02*
D03*
Y134060D02*
D03*
Y144060D02*
D03*
X457280Y139060D02*
D03*
Y134060D02*
D03*
Y144060D02*
D03*
X472280Y104060D02*
D03*
X462280Y109060D02*
D03*
X467280D02*
D03*
X472280D02*
D03*
X462280Y114060D02*
D03*
X467280D02*
D03*
X472280D02*
D03*
X462280Y119060D02*
D03*
X467280D02*
D03*
X472280D02*
D03*
X462280Y124060D02*
D03*
X467280D02*
D03*
X472280D02*
D03*
X462280Y129060D02*
D03*
X467280D02*
D03*
X472280D02*
D03*
X462280Y134060D02*
D03*
X467280D02*
D03*
X472280D02*
D03*
X462280Y139060D02*
D03*
X467280D02*
D03*
X472280D02*
D03*
X462280Y144060D02*
D03*
X467280D02*
D03*
X472280D02*
D03*
D46*
X646240Y361320D02*
D03*
Y206320D02*
D03*
D47*
X550240Y352320D02*
D03*
D48*
Y206320D02*
D03*
D49*
X540240Y229320D02*
D03*
Y240320D02*
D03*
Y251320D02*
D03*
Y262320D02*
D03*
Y273320D02*
D03*
Y284320D02*
D03*
Y295320D02*
D03*
Y306320D02*
D03*
Y218320D02*
D03*
D50*
X290480Y74840D02*
D03*
X228480D02*
D03*
D51*
X236980D02*
D03*
X241980D02*
D03*
X246980D02*
D03*
X251980D02*
D03*
X256980D02*
D03*
X261980D02*
D03*
X266980D02*
D03*
X271980D02*
D03*
X276980D02*
D03*
X281980D02*
D03*
X289480Y87840D02*
D03*
X284480D02*
D03*
X279480D02*
D03*
X274480D02*
D03*
X269480D02*
D03*
X264480D02*
D03*
X254480D02*
D03*
X249480D02*
D03*
X244480D02*
D03*
X239480D02*
D03*
X234480D02*
D03*
X229480D02*
D03*
D52*
X212700Y167640D02*
D03*
X193700D02*
D03*
D53*
X90760Y353060D02*
D03*
X132760D02*
D03*
D54*
X617220Y85680D02*
D03*
Y127680D02*
D03*
D55*
X63500Y30480D02*
D03*
X88900D02*
D03*
X114300D02*
D03*
X139700D02*
D03*
D56*
X405130Y337820D02*
D03*
Y350520D02*
D03*
Y325120D02*
D03*
X417830D02*
D03*
Y337820D02*
D03*
Y350520D02*
D03*
D57*
X43180Y325460D02*
D03*
X52680Y304460D02*
D03*
X33680D02*
D03*
D58*
X246580Y149200D02*
D03*
Y139700D02*
D03*
Y130200D02*
D03*
X271580Y149200D02*
D03*
Y139700D02*
D03*
Y130200D02*
D03*
X114100Y99720D02*
D03*
Y109220D02*
D03*
Y118720D02*
D03*
X89100Y99720D02*
D03*
Y109220D02*
D03*
Y118720D02*
D03*
D59*
X462940Y317700D02*
D03*
X472440D02*
D03*
X481940D02*
D03*
X462940Y342700D02*
D03*
X472440D02*
D03*
X481940D02*
D03*
X462940Y238960D02*
D03*
X472440D02*
D03*
X481940D02*
D03*
X462940Y263960D02*
D03*
X472440D02*
D03*
X481940D02*
D03*
D60*
X255280Y312400D02*
D03*
X238780Y295900D02*
D03*
Y279400D02*
D03*
X255280D02*
D03*
X271780D02*
D03*
Y295900D02*
D03*
Y312400D02*
D03*
X255280Y295900D02*
D03*
D61*
X325280Y304400D02*
D03*
Y261900D02*
D03*
Y287400D02*
D03*
Y236400D02*
D03*
Y244900D02*
D03*
Y253400D02*
D03*
Y270400D02*
D03*
Y278900D02*
D03*
Y295900D02*
D03*
Y312900D02*
D03*
Y321400D02*
D03*
Y329900D02*
D03*
Y338400D02*
D03*
Y346900D02*
D03*
Y355400D02*
D03*
D62*
X185280D02*
D03*
Y346900D02*
D03*
Y338400D02*
D03*
Y329900D02*
D03*
Y321400D02*
D03*
Y312900D02*
D03*
Y304400D02*
D03*
Y295900D02*
D03*
Y287400D02*
D03*
Y278900D02*
D03*
Y270400D02*
D03*
Y261900D02*
D03*
Y253400D02*
D03*
Y244900D02*
D03*
Y236400D02*
D03*
D63*
X195780Y225900D02*
D03*
X314780Y365900D02*
D03*
X306280D02*
D03*
X297780D02*
D03*
X289280D02*
D03*
X280780D02*
D03*
X272280D02*
D03*
X263780D02*
D03*
X255280D02*
D03*
X246780D02*
D03*
X238280D02*
D03*
X229780D02*
D03*
X221280D02*
D03*
X204280D02*
D03*
X195780D02*
D03*
X212780D02*
D03*
X204280Y225900D02*
D03*
X306280D02*
D03*
X314780D02*
D03*
X289280D02*
D03*
X297780D02*
D03*
X272280D02*
D03*
X255280D02*
D03*
X263780D02*
D03*
X238280D02*
D03*
X246780D02*
D03*
X221280D02*
D03*
X229780D02*
D03*
X212780D02*
D03*
X280780D02*
D03*
D64*
X185280Y365900D02*
D03*
Y225900D02*
D03*
X325280D02*
D03*
Y365900D02*
D03*
D65*
X82550Y140640D02*
D03*
X95250D02*
D03*
X107950D02*
D03*
X120650D02*
D03*
X82550Y194640D02*
D03*
X95250D02*
D03*
X107950D02*
D03*
X120650D02*
D03*
D66*
X198120Y191580D02*
D03*
Y199580D02*
D03*
X236220Y198818D02*
D03*
Y190818D02*
D03*
D67*
X134030Y258880D02*
D03*
Y253880D02*
D03*
Y248880D02*
D03*
Y243880D02*
D03*
Y238880D02*
D03*
Y233880D02*
D03*
X94550D02*
D03*
Y238880D02*
D03*
Y243880D02*
D03*
Y248880D02*
D03*
Y253880D02*
D03*
Y258880D02*
D03*
D68*
X126800Y226630D02*
D03*
X121800D02*
D03*
X116800D02*
D03*
X111800D02*
D03*
X106800D02*
D03*
X101800D02*
D03*
Y266130D02*
D03*
X106800D02*
D03*
X111800D02*
D03*
X116800D02*
D03*
X121800D02*
D03*
X126800D02*
D03*
D69*
X212040Y144780D02*
D03*
X193040D02*
D03*
X212040Y118880D02*
D03*
X202540D02*
D03*
X193040D02*
D03*
D70*
X52680Y269400D02*
D03*
X33680D02*
D03*
X43180Y289400D02*
D03*
D71*
X50680Y224470D02*
D03*
X45680D02*
D03*
X40680D02*
D03*
X35680D02*
D03*
Y247970D02*
D03*
X40680D02*
D03*
X45680D02*
D03*
X50680D02*
D03*
D72*
X360680Y355680D02*
D03*
Y365680D02*
D03*
X627380Y147240D02*
D03*
Y137240D02*
D03*
X617220Y137160D02*
D03*
Y147160D02*
D03*
X78740Y348060D02*
D03*
Y358060D02*
D03*
X185420Y200580D02*
D03*
Y190580D02*
D03*
X248920D02*
D03*
Y200580D02*
D03*
X20320Y299800D02*
D03*
Y309800D02*
D03*
Y289400D02*
D03*
Y279400D02*
D03*
X68580Y299800D02*
D03*
Y309800D02*
D03*
Y279560D02*
D03*
Y289560D02*
D03*
X302260Y147240D02*
D03*
Y137240D02*
D03*
X292100D02*
D03*
Y147240D02*
D03*
X210820Y190660D02*
D03*
Y200660D02*
D03*
X220980Y190580D02*
D03*
Y200580D02*
D03*
X269240Y114220D02*
D03*
Y104220D02*
D03*
X248920Y114300D02*
D03*
Y104300D02*
D03*
X383540Y185500D02*
D03*
Y195500D02*
D03*
X434660Y184860D02*
D03*
Y194860D02*
D03*
X421960Y184860D02*
D03*
Y194860D02*
D03*
X396240Y185500D02*
D03*
Y195500D02*
D03*
X53340Y131920D02*
D03*
Y121920D02*
D03*
X63500Y122000D02*
D03*
Y132000D02*
D03*
X43180Y122000D02*
D03*
Y132000D02*
D03*
X53340Y94060D02*
D03*
Y104060D02*
D03*
X157480Y132080D02*
D03*
Y122080D02*
D03*
X299720Y190580D02*
D03*
Y200580D02*
D03*
X309880Y190580D02*
D03*
Y200580D02*
D03*
X269240Y190580D02*
D03*
Y200580D02*
D03*
X279400Y190660D02*
D03*
Y200660D02*
D03*
X289560Y190580D02*
D03*
Y200580D02*
D03*
D73*
X162480Y281940D02*
D03*
X152480D02*
D03*
X162480Y271780D02*
D03*
X152480D02*
D03*
X162400Y261620D02*
D03*
X152400D02*
D03*
X162480Y251460D02*
D03*
X152480D02*
D03*
X510460Y342900D02*
D03*
X500460D02*
D03*
X510460Y330200D02*
D03*
X500460D02*
D03*
X510460Y317500D02*
D03*
X500460D02*
D03*
X510460Y274320D02*
D03*
X500460D02*
D03*
X510460Y261620D02*
D03*
X500460D02*
D03*
X510460Y248920D02*
D03*
X500460D02*
D03*
X510460Y236220D02*
D03*
X500460D02*
D03*
X363140Y297180D02*
D03*
X353140D02*
D03*
X363140Y287020D02*
D03*
X353140D02*
D03*
X363140Y276860D02*
D03*
X353140D02*
D03*
X363140Y266700D02*
D03*
X353140D02*
D03*
X363140Y256540D02*
D03*
X353140D02*
D03*
X363140Y246380D02*
D03*
X353140D02*
D03*
X363300Y111760D02*
D03*
X373300D02*
D03*
X363300Y86360D02*
D03*
X373300D02*
D03*
Y99060D02*
D03*
X363300D02*
D03*
X363060Y226060D02*
D03*
X353060D02*
D03*
X363140Y215900D02*
D03*
X353140D02*
D03*
D74*
X167640Y352980D02*
D03*
Y342980D02*
D03*
X350520Y355680D02*
D03*
Y365680D02*
D03*
X154940Y352980D02*
D03*
Y342980D02*
D03*
X607060Y147240D02*
D03*
Y137240D02*
D03*
X226060Y147240D02*
D03*
Y137240D02*
D03*
X447040Y185500D02*
D03*
Y195500D02*
D03*
X88900Y289640D02*
D03*
Y299640D02*
D03*
X147320Y226140D02*
D03*
Y236140D02*
D03*
X20320Y226140D02*
D03*
Y236140D02*
D03*
X81280Y246460D02*
D03*
Y256460D02*
D03*
Y226140D02*
D03*
Y236140D02*
D03*
X68580Y226140D02*
D03*
Y236140D02*
D03*
X142240Y122080D02*
D03*
Y132080D02*
D03*
D75*
X193120Y104140D02*
D03*
X203120D02*
D03*
X510460Y287020D02*
D03*
X500460D02*
D03*
X510460Y297180D02*
D03*
X500460D02*
D03*
X373300Y73660D02*
D03*
X363300D02*
D03*
X373300Y124460D02*
D03*
X363300D02*
D03*
D76*
X302680Y83740D02*
D03*
X216280D02*
D03*
D77*
X302680Y30140D02*
D03*
X216280D02*
D03*
D78*
X685800Y20320D02*
D03*
X20320Y360680D02*
D03*
M02*
