G04*
G04 #@! TF.GenerationSoftware,Altium Limited,Altium Designer,22.9.1 (49)*
G04*
G04 Layer_Physical_Order=3*
G04 Layer_Color=128*
%FSLAX44Y44*%
%MOMM*%
G71*
G04*
G04 #@! TF.SameCoordinates,B13B86A1-C59C-446D-9954-5AC39BAABFE9*
G04*
G04*
G04 #@! TF.FilePolarity,Negative*
G04*
G01*
G75*
%ADD110C,1.0160*%
%ADD111O,0.7778X1.7778*%
%ADD112O,0.7778X2.2778*%
%ADD113C,0.3778*%
%ADD114C,0.4778*%
%ADD115C,0.4278*%
G36*
X414287Y367421D02*
X415681Y366027D01*
X416435Y364206D01*
Y363220D01*
Y362234D01*
X415681Y360413D01*
X414287Y359019D01*
X412466Y358265D01*
X410494D01*
X408673Y359019D01*
X407279Y360413D01*
X406525Y362234D01*
Y363220D01*
Y364206D01*
X407279Y366027D01*
X408673Y367421D01*
X410494Y368175D01*
X412466D01*
X414287Y367421D01*
D02*
G37*
G36*
X653072Y318559D02*
X654479Y317152D01*
X655240Y315315D01*
Y314320D01*
Y313325D01*
X654479Y311488D01*
X653072Y310081D01*
X651235Y309320D01*
X649245D01*
X647408Y310081D01*
X646001Y311488D01*
X645240Y313325D01*
Y314320D01*
Y315315D01*
X646001Y317152D01*
X647408Y318559D01*
X649245Y319320D01*
X651235D01*
X653072Y318559D01*
D02*
G37*
G36*
X424447Y316621D02*
X425841Y315227D01*
X426595Y313406D01*
Y312420D01*
Y311434D01*
X425841Y309613D01*
X424447Y308219D01*
X422626Y307465D01*
X420654D01*
X418833Y308219D01*
X417439Y309613D01*
X416685Y311434D01*
Y312420D01*
Y313406D01*
X417439Y315227D01*
X418833Y316621D01*
X420654Y317375D01*
X422626D01*
X424447Y316621D01*
D02*
G37*
G36*
X404127D02*
X405521Y315227D01*
X406275Y313406D01*
Y312420D01*
Y311434D01*
X405521Y309613D01*
X404127Y308219D01*
X402306Y307465D01*
X400334D01*
X398513Y308219D01*
X397119Y309613D01*
X396365Y311434D01*
Y312420D01*
Y313406D01*
X397119Y315227D01*
X398513Y316621D01*
X400334Y317375D01*
X402306D01*
X404127Y316621D01*
D02*
G37*
G36*
X653072Y238559D02*
X654479Y237152D01*
X655240Y235315D01*
Y234320D01*
Y233325D01*
X654479Y231488D01*
X653072Y230081D01*
X651235Y229320D01*
X649245D01*
X647408Y230081D01*
X646001Y231488D01*
X645240Y233325D01*
Y234320D01*
Y235315D01*
X646001Y237152D01*
X647408Y238559D01*
X649245Y239320D01*
X651235D01*
X653072Y238559D01*
D02*
G37*
D110*
X651235Y239320D02*
X653072Y238559D01*
X654479Y237152D01*
X655240Y235315D01*
Y234320D02*
Y235315D01*
Y233325D02*
Y234320D01*
X654479Y231488D02*
X655240Y233325D01*
X653072Y230081D02*
X654479Y231488D01*
X651235Y229320D02*
X653072Y230081D01*
X649245Y229320D02*
X651235D01*
X647408Y230081D02*
X649245Y229320D01*
X646001Y231488D02*
X647408Y230081D01*
X645240Y233325D02*
X646001Y231488D01*
X645240Y233325D02*
Y234320D01*
Y235315D01*
X646001Y237152D01*
X647408Y238559D01*
X649245Y239320D01*
X651235D01*
X402306Y317375D02*
X404127Y316621D01*
X405521Y315227D01*
X406275Y313406D01*
Y312420D02*
Y313406D01*
Y311434D02*
Y312420D01*
X405521Y309613D02*
X406275Y311434D01*
X404127Y308219D02*
X405521Y309613D01*
X402306Y307465D02*
X404127Y308219D01*
X400334Y307465D02*
X402306D01*
X398513Y308219D02*
X400334Y307465D01*
X397119Y309613D02*
X398513Y308219D01*
X396365Y311434D02*
X397119Y309613D01*
X396365Y311434D02*
Y312420D01*
Y313406D01*
X397119Y315227D01*
X398513Y316621D01*
X400334Y317375D01*
X402306D01*
X422626D02*
X424447Y316621D01*
X425841Y315227D01*
X426595Y313406D01*
Y312420D02*
Y313406D01*
Y311434D02*
Y312420D01*
X425841Y309613D02*
X426595Y311434D01*
X424447Y308219D02*
X425841Y309613D01*
X422626Y307465D02*
X424447Y308219D01*
X420654Y307465D02*
X422626D01*
X418833Y308219D02*
X420654Y307465D01*
X417439Y309613D02*
X418833Y308219D01*
X416685Y311434D02*
X417439Y309613D01*
X416685Y311434D02*
Y312420D01*
Y313406D01*
X417439Y315227D01*
X418833Y316621D01*
X420654Y317375D01*
X422626D01*
X651235Y319320D02*
X653072Y318559D01*
X654479Y317152D01*
X655240Y315315D01*
Y314320D02*
Y315315D01*
Y313325D02*
Y314320D01*
X654479Y311488D02*
X655240Y313325D01*
X653072Y310081D02*
X654479Y311488D01*
X651235Y309320D02*
X653072Y310081D01*
X649245Y309320D02*
X651235D01*
X647408Y310081D02*
X649245Y309320D01*
X646001Y311488D02*
X647408Y310081D01*
X645240Y313325D02*
X646001Y311488D01*
X645240Y313325D02*
Y314320D01*
Y315315D01*
X646001Y317152D01*
X647408Y318559D01*
X649245Y319320D01*
X651235D01*
X412466Y368175D02*
X414287Y367421D01*
X415681Y366027D01*
X416435Y364206D01*
Y363220D02*
Y364206D01*
Y362234D02*
Y363220D01*
X415681Y360413D02*
X416435Y362234D01*
X414287Y359019D02*
X415681Y360413D01*
X412466Y358265D02*
X414287Y359019D01*
X410494Y358265D02*
X412466D01*
X408673Y359019D02*
X410494Y358265D01*
X407279Y360413D02*
X408673Y359019D01*
X406525Y362234D02*
X407279Y360413D01*
X406525Y362234D02*
Y363220D01*
Y364206D01*
X407279Y366027D01*
X408673Y367421D01*
X410494Y368175D01*
X412466D01*
X706120Y0D02*
Y381000D01*
X0D02*
X706120D01*
X0Y0D02*
Y381000D01*
Y0D02*
X706120D01*
D111*
X302680Y83740D02*
D03*
X216280D02*
D03*
D112*
X302680Y30140D02*
D03*
X216280D02*
D03*
D113*
X256540Y68580D02*
D03*
X262310D02*
D03*
X270764Y97282D02*
D03*
X248412Y98044D02*
D03*
X273304Y64516D02*
D03*
X250698Y67310D02*
D03*
X198120Y330200D02*
D03*
X299720Y68580D02*
D03*
X220980Y182880D02*
D03*
X210820D02*
D03*
X276860Y104140D02*
D03*
X241300D02*
D03*
X264970Y96520D02*
D03*
X254000D02*
D03*
X170180Y292100D02*
D03*
Y302260D02*
D03*
X78740Y299720D02*
D03*
X30480Y289560D02*
D03*
X434340Y337820D02*
D03*
Y325120D02*
D03*
X363220Y320040D02*
D03*
Y332740D02*
D03*
D114*
X279400Y170180D02*
D03*
X91694Y308610D02*
D03*
X337820Y332740D02*
D03*
X340360Y223520D02*
D03*
X396240Y81280D02*
D03*
X431800Y68580D02*
D03*
X441960Y114300D02*
D03*
X434340Y157480D02*
D03*
X302260Y129540D02*
D03*
X440690Y328930D02*
D03*
X370586Y320040D02*
D03*
X355854Y332740D02*
D03*
X279075Y96821D02*
D03*
X492760Y292100D02*
D03*
X132080Y218440D02*
D03*
X76200Y127000D02*
D03*
X129540Y132080D02*
D03*
Y121920D02*
D03*
X139700Y53340D02*
D03*
X48260Y215900D02*
D03*
X175260Y200660D02*
D03*
X165100Y226060D02*
D03*
X112776Y329494D02*
D03*
X154940Y360680D02*
D03*
X167640D02*
D03*
X248920Y182880D02*
D03*
X231140Y129540D02*
D03*
X223520Y119380D02*
D03*
X195580Y132080D02*
D03*
X208280D02*
D03*
X228600Y165100D02*
D03*
Y172720D02*
D03*
X276860Y114300D02*
D03*
X292100Y96520D02*
D03*
X238760D02*
D03*
X226060D02*
D03*
X73660Y243840D02*
D03*
X78740Y337820D02*
D03*
X138430Y308356D02*
D03*
X55880Y289560D02*
D03*
X68580Y269240D02*
D03*
X617220Y96520D02*
D03*
X594360Y137160D02*
D03*
X472440Y226060D02*
D03*
Y304800D02*
D03*
X627380Y208280D02*
D03*
X566420D02*
D03*
X556260Y251460D02*
D03*
X566420Y353060D02*
D03*
X645160Y347980D02*
D03*
D115*
X68080Y341000D02*
D03*
X698080D02*
D03*
X683080Y311000D02*
D03*
X698080Y281000D02*
D03*
X683080Y251000D02*
D03*
X698080Y221000D02*
D03*
X683080Y191000D02*
D03*
X698080Y161000D02*
D03*
X683080Y131000D02*
D03*
X698080Y101000D02*
D03*
X683080Y71000D02*
D03*
X698080Y41000D02*
D03*
X683080Y11000D02*
D03*
X668080Y341000D02*
D03*
Y281000D02*
D03*
X653080Y251000D02*
D03*
X668080Y221000D02*
D03*
X653080Y191000D02*
D03*
X668080Y161000D02*
D03*
X653080Y131000D02*
D03*
X668080Y101000D02*
D03*
X653080Y71000D02*
D03*
X668080Y41000D02*
D03*
X653080Y11000D02*
D03*
X638080Y341000D02*
D03*
X623080Y311000D02*
D03*
X638080Y281000D02*
D03*
X623080Y251000D02*
D03*
X638080Y221000D02*
D03*
X623080Y191000D02*
D03*
X638080Y161000D02*
D03*
Y101000D02*
D03*
X623080Y71000D02*
D03*
X638080Y41000D02*
D03*
X623080Y11000D02*
D03*
X608080Y341000D02*
D03*
X593080Y311000D02*
D03*
X608080Y281000D02*
D03*
X593080Y251000D02*
D03*
X608080Y221000D02*
D03*
X593080Y191000D02*
D03*
X608080Y161000D02*
D03*
Y101000D02*
D03*
X593080Y71000D02*
D03*
X608080Y41000D02*
D03*
X593080Y11000D02*
D03*
X578080Y341000D02*
D03*
X563080Y311000D02*
D03*
X578080Y281000D02*
D03*
Y221000D02*
D03*
Y161000D02*
D03*
X563080Y131000D02*
D03*
X578080Y101000D02*
D03*
X563080Y71000D02*
D03*
X578080Y41000D02*
D03*
X563080Y11000D02*
D03*
X533080Y191000D02*
D03*
X548080Y161000D02*
D03*
X533080Y131000D02*
D03*
X548080Y101000D02*
D03*
X533080Y71000D02*
D03*
X548080Y41000D02*
D03*
X533080Y11000D02*
D03*
X503080Y191000D02*
D03*
X518080Y161000D02*
D03*
X503080Y131000D02*
D03*
X518080Y101000D02*
D03*
X503080Y71000D02*
D03*
X518080Y41000D02*
D03*
X503080Y11000D02*
D03*
X473080Y191000D02*
D03*
X488080Y161000D02*
D03*
Y101000D02*
D03*
X473080Y71000D02*
D03*
X488080Y41000D02*
D03*
X473080Y11000D02*
D03*
X458080Y161000D02*
D03*
X443080Y71000D02*
D03*
X458080Y41000D02*
D03*
X443080Y11000D02*
D03*
X428080Y221000D02*
D03*
Y41000D02*
D03*
X413080Y11000D02*
D03*
X383080Y311000D02*
D03*
X398080Y161000D02*
D03*
X383080Y131000D02*
D03*
X398080Y41000D02*
D03*
X383080Y11000D02*
D03*
X368080Y161000D02*
D03*
Y41000D02*
D03*
X353080Y11000D02*
D03*
X338080Y161000D02*
D03*
X323080Y71000D02*
D03*
X338080Y41000D02*
D03*
X323080Y11000D02*
D03*
X293080Y311000D02*
D03*
X308080Y281000D02*
D03*
X293080Y251000D02*
D03*
X308080Y101000D02*
D03*
X293080Y11000D02*
D03*
X263080Y251000D02*
D03*
X278080Y161000D02*
D03*
Y41000D02*
D03*
X263080Y11000D02*
D03*
X233080Y251000D02*
D03*
X248080Y41000D02*
D03*
X233080Y11000D02*
D03*
X203080Y311000D02*
D03*
X218080Y281000D02*
D03*
X203080Y71000D02*
D03*
Y11000D02*
D03*
X173080Y131000D02*
D03*
Y71000D02*
D03*
X188080Y41000D02*
D03*
X173080Y11000D02*
D03*
X158080Y41000D02*
D03*
X143080Y11000D02*
D03*
X128080Y161000D02*
D03*
X113080Y11000D02*
D03*
X83080Y311000D02*
D03*
X98080Y161000D02*
D03*
X83080Y71000D02*
D03*
Y11000D02*
D03*
X68080Y161000D02*
D03*
X53080Y71000D02*
D03*
Y11000D02*
D03*
X38080Y341000D02*
D03*
X23080Y251000D02*
D03*
Y191000D02*
D03*
X38080Y161000D02*
D03*
X23080Y131000D02*
D03*
X38080Y101000D02*
D03*
X23080Y71000D02*
D03*
X38080Y41000D02*
D03*
X23080Y11000D02*
D03*
X205486Y244348D02*
D03*
X235204Y207010D02*
D03*
X251206Y208788D02*
D03*
X115824Y211328D02*
D03*
X138684Y201422D02*
D03*
X90678Y214376D02*
D03*
X30480Y282702D02*
D03*
X163576Y289814D02*
D03*
X205740Y330200D02*
D03*
X355600Y124460D02*
D03*
X447040Y203200D02*
D03*
X355600Y73660D02*
D03*
X200660Y238760D02*
D03*
X617220Y154940D02*
D03*
X86360Y208280D02*
D03*
X109220D02*
D03*
X132080Y198120D02*
D03*
X228600Y210820D02*
D03*
X238760Y213360D02*
D03*
X248920Y215900D02*
D03*
X167640Y101600D02*
D03*
X63500Y93980D02*
D03*
M02*
